<svg width="18" height="16" viewBox="0 0 18 16" fill="none" xmlns="http://www.w3.org/2000/svg">
<g clip-path="url(#clip0_5209_7512)">
<path d="M18.0007 12.1744C17.5979 11.9101 17.2187 11.6764 16.8549 11.4205C15.4785 10.4518 13.8295 10.8913 12.9081 12.1194C12.6335 12.4852 12.4154 12.8636 12.3324 13.3066C12.2662 13.6612 12.2363 14.0243 12.2154 14.3852C12.1938 14.7593 12.2007 15.1356 12.2007 15.5104C12.2007 15.6571 12.2154 15.8039 12.2265 16C8.13266 13.3177 4.08201 10.6639 5.02178e-06 7.98992C4.07504 5.32012 8.12778 2.66423 12.1938 1.46133e-06C12.2063 0.0445094 12.2209 0.0709367 12.2202 0.0966687C12.2119 0.593213 12.1896 1.09045 12.1958 1.5863C12.2028 2.14126 12.2871 2.68579 12.5269 3.19555C12.9938 4.18864 13.7256 4.86391 14.8331 5.05585C15.5433 5.17895 16.197 4.99535 16.7943 4.59825C17.156 4.35763 17.5184 4.1184 17.8808 3.87986C17.9129 3.859 17.9491 3.84509 18.0007 3.81866L18.0007 12.1744Z" fill="#F6D69A"/>
</g>
<defs>
<clipPath id="clip0_5209_7512">
<rect width="18" height="16" fill="white"/>
</clipPath>
</defs>
</svg>
