<svg width="11" height="12" viewBox="0 0 11 12" fill="none" xmlns="http://www.w3.org/2000/svg">
<path opacity="0.6" d="M0 10.875C0 11.4961 0.503906 12 1.125 12H9.375C9.99609 12 10.5 11.4961 10.5 10.875V4.5H0V10.875ZM7.5 6.28125C7.5 6.12656 7.62656 6 7.78125 6H8.71875C8.87344 6 9 6.12656 9 6.28125V7.21875C9 7.37344 8.87344 7.5 8.71875 7.5H7.78125C7.62656 7.5 7.5 7.37344 7.5 7.21875V6.28125ZM7.5 9.28125C7.5 9.12656 7.62656 9 7.78125 9H8.71875C8.87344 9 9 9.12656 9 9.28125V10.2188C9 10.3734 8.87344 10.5 8.71875 10.5H7.78125C7.62656 10.5 7.5 10.3734 7.5 10.2188V9.28125ZM4.5 6.28125C4.5 6.12656 4.62656 6 4.78125 6H5.71875C5.87344 6 6 6.12656 6 6.28125V7.21875C6 7.37344 5.87344 7.5 5.71875 7.5H4.78125C4.62656 7.5 4.5 7.37344 4.5 7.21875V6.28125ZM4.5 9.28125C4.5 9.12656 4.62656 9 4.78125 9H5.71875C5.87344 9 6 9.12656 6 9.28125V10.2188C6 10.3734 5.87344 10.5 5.71875 10.5H4.78125C4.62656 10.5 4.5 10.3734 4.5 10.2188V9.28125ZM1.5 6.28125C1.5 6.12656 1.62656 6 1.78125 6H2.71875C2.87344 6 3 6.12656 3 6.28125V7.21875C3 7.37344 2.87344 7.5 2.71875 7.5H1.78125C1.62656 7.5 1.5 7.37344 1.5 7.21875V6.28125ZM1.5 9.28125C1.5 9.12656 1.62656 9 1.78125 9H2.71875C2.87344 9 3 9.12656 3 9.28125V10.2188C3 10.3734 2.87344 10.5 2.71875 10.5H1.78125C1.62656 10.5 1.5 10.3734 1.5 10.2188V9.28125ZM9.375 1.5H8.25V0.375C8.25 0.16875 8.08125 0 7.875 0H7.125C6.91875 0 6.75 0.16875 6.75 0.375V1.5H3.75V0.375C3.75 0.16875 3.58125 0 3.375 0H2.625C2.41875 0 2.25 0.16875 2.25 0.375V1.5H1.125C0.503906 1.5 0 2.00391 0 2.625V3.75H10.5V2.625C10.5 2.00391 9.99609 1.5 9.375 1.5Z" fill="#F6D69A"/>
</svg>
