<svg width="20" height="21" viewBox="0 0 20 21" fill="none" xmlns="http://www.w3.org/2000/svg">
<g clip-path="url(#clip0_5116_3545)">
<path fill-rule="evenodd" clip-rule="evenodd" d="M3 2.70843H17C17.2652 2.70843 17.5196 2.81039 17.7071 2.99188C17.8946 3.17336 18 3.41951 18 3.67617V17.2246C18 17.4812 17.8946 17.7274 17.7071 17.9089C17.5196 18.0903 17.2652 18.1923 17 18.1923H3C2.73478 18.1923 2.48043 18.0903 2.29289 17.9089C2.10536 17.7274 2 17.4812 2 17.2246V3.67617C2 3.41951 2.10536 3.17336 2.29289 2.99188C2.48043 2.81039 2.73478 2.70843 3 2.70843ZM0 3.67617C0 2.90619 0.316071 2.16774 0.87868 1.62328C1.44129 1.07882 2.20435 0.772949 3 0.772949H17C17.7956 0.772949 18.5587 1.07882 19.1213 1.62328C19.6839 2.16774 20 2.90619 20 3.67617V17.2246C20 17.9945 19.6839 18.733 19.1213 19.2775C18.5587 19.8219 17.7956 20.1278 17 20.1278H3C2.20435 20.1278 1.44129 19.8219 0.87868 19.2775C0.316071 18.733 0 17.9945 0 17.2246V3.67617ZM10 10.4504C7.239 10.4504 5 7.85101 5 4.64392H7C7 7.12714 8.669 8.51488 10 8.51488C11.331 8.51488 13 7.12714 13 4.64392H15C15 7.85101 12.761 10.4504 10 10.4504Z" fill="white"/>
</g>
<defs>
<clipPath id="clip0_5116_3545">
<rect width="20" height="19.3548" fill="white" transform="translate(0 0.772949)"/>
</clipPath>
</defs>
</svg>
