<svg width="25" height="23" viewBox="0 0 25 23" fill="none" xmlns="http://www.w3.org/2000/svg">
<g opacity="0.5">
<g filter="url(#filter0_i_4994_29370)">
<rect x="20" y="4" width="18" height="18" rx="2" transform="rotate(90 20 4)" fill="white" fill-opacity="0.3"/>
</g>
<rect x="20.5" y="3.5" width="19" height="19" rx="2.5" transform="rotate(90 20.5 3.5)" stroke="white" stroke-opacity="0.7" stroke-linecap="round" stroke-linejoin="round"/>
</g>
<path d="M8.4911 18.2766L0.366101 10.1516C-0.122034 9.66351 -0.122034 8.87206 0.366101 8.38387L2.13383 6.6161C2.62196 6.12792 3.41346 6.12792 3.9016 6.6161L9.37499 12.0894L21.0984 0.366101C21.5865 -0.122034 22.378 -0.122034 22.8662 0.366101L24.6339 2.13387C25.122 2.62201 25.122 3.41346 24.6339 3.90165L10.2589 18.2767C9.77069 18.7648 8.97924 18.7648 8.4911 18.2766Z" fill="#F6D69A"/>
<defs>
<filter id="filter0_i_4994_29370" x="1" y="3" width="24" height="24" filterUnits="userSpaceOnUse" color-interpolation-filters="sRGB">
<feFlood flood-opacity="0" result="BackgroundImageFix"/>
<feBlend mode="normal" in="SourceGraphic" in2="BackgroundImageFix" result="shape"/>
<feColorMatrix in="SourceAlpha" type="matrix" values="0 0 0 0 0 0 0 0 0 0 0 0 0 0 0 0 0 0 127 0" result="hardAlpha"/>
<feOffset dx="4" dy="4"/>
<feGaussianBlur stdDeviation="2"/>
<feComposite in2="hardAlpha" operator="arithmetic" k2="-1" k3="1"/>
<feColorMatrix type="matrix" values="0 0 0 0 0 0 0 0 0 0 0 0 0 0 0 0 0 0 0.25 0"/>
<feBlend mode="normal" in2="shape" result="effect1_innerShadow_4994_29370"/>
</filter>
</defs>
</svg>
