<svg width="25" height="25" viewBox="0 0 25 25" fill="none" xmlns="http://www.w3.org/2000/svg">
<g id="Service/Group 88">
<circle id="Ellipse 16" cx="12.5" cy="12.5" r="12.5" fill="white"/>
<path id="Vector" d="M13.8722 12.5L17.7129 8.65926C17.8952 8.47731 17.9977 8.23039 17.9979 7.97283C17.9982 7.71528 17.8961 7.46818 17.7141 7.2859C17.5321 7.10362 17.2852 7.00109 17.0277 7.00086C16.7701 7.00063 16.523 7.10273 16.3407 7.28468L12.5 11.1254L8.65926 7.28468C8.47698 7.1024 8.22976 7 7.97197 7C7.71419 7 7.46697 7.1024 7.28468 7.28468C7.1024 7.46697 7 7.71419 7 7.97197C7 8.22976 7.1024 8.47698 7.28468 8.65926L11.1254 12.5L7.28468 16.3407C7.1024 16.523 7 16.7702 7 17.028C7 17.2858 7.1024 17.533 7.28468 17.7153C7.46697 17.8976 7.71419 18 7.97197 18C8.22976 18 8.47698 17.8976 8.65926 17.7153L12.5 13.8746L16.3407 17.7153C16.523 17.8976 16.7702 18 17.028 18C17.2858 18 17.533 17.8976 17.7153 17.7153C17.8976 17.533 18 17.2858 18 17.028C18 16.7702 17.8976 16.523 17.7153 16.3407L13.8722 12.5Z" fill="black"/>
</g>
</svg>
