<svg width="20" height="20" viewBox="0 0 20 20" fill="none" xmlns="http://www.w3.org/2000/svg">
<path d="M9.99811 0C4.53143 0 0.0991211 4.47915 0.0991211 10C0.0991211 15.5241 4.53143 20 9.99811 20C15.4648 20 19.8971 15.5241 19.8971 10C19.8971 4.47915 15.4648 0 9.99811 0ZM9.99811 4.43548C10.924 4.43548 11.6746 5.19371 11.6746 6.12903C11.6746 7.06435 10.924 7.82258 9.99811 7.82258C9.07224 7.82258 8.32167 7.06435 8.32167 6.12903C8.32167 5.19371 9.07224 4.43548 9.99811 4.43548ZM12.2334 14.6774C12.2334 14.9446 12.0189 15.1613 11.7544 15.1613H8.24184C7.97732 15.1613 7.76286 14.9446 7.76286 14.6774V13.7097C7.76286 13.4425 7.97732 13.2258 8.24184 13.2258H8.72082V10.6452H8.24184C7.97732 10.6452 7.76286 10.4285 7.76286 10.1613V9.19355C7.76286 8.92633 7.97732 8.70968 8.24184 8.70968H10.7964C11.0609 8.70968 11.2754 8.92633 11.2754 9.19355V13.2258H11.7544C12.0189 13.2258 12.2334 13.4425 12.2334 13.7097V14.6774Z" fill="#F6D69A"/>
</svg>
