<svg width="12" height="16" viewBox="0 0 12 16" fill="none" xmlns="http://www.w3.org/2000/svg">
<g clip-path="url(#clip0_5209_6624)">
<path d="M10.3975 7.22281C10.9689 7.51721 11.5016 7.88346 12 8.36362C11.5109 8.8613 10.9612 9.21003 10.3929 9.53422C10.3587 9.39053 10.3385 9.26786 10.3012 9.1487C10.2019 8.8245 10.014 8.6773 9.71118 8.67905C9.40217 8.67905 9.11801 8.79822 8.84161 8.93666C8.43323 9.14169 8.07298 9.43434 7.71428 9.73049C7.65683 9.77781 7.67236 9.82512 7.70962 9.86718C7.77639 9.94078 7.84627 10.0109 7.91615 10.0792C8.19254 10.3456 8.47515 10.6032 8.74689 10.8783C9 11.1342 9.16459 11.4478 9.16304 11.8474C9.16304 12.2399 8.87422 12.5238 8.53105 12.4712C8.40062 12.4502 8.3059 12.3451 8.29969 12.2101C8.29192 12.0559 8.3618 11.9525 8.5 11.9105C8.78416 11.8264 8.87422 11.5618 8.68478 11.3006C8.48913 11.0325 8.26708 10.7872 8.04969 10.5401C7.8882 10.3579 7.71428 10.1896 7.54658 10.0144C7.49534 9.96006 7.45807 9.94954 7.40372 10.0144C7.17857 10.2843 6.93633 10.5348 6.7236 10.817C6.43633 11.2008 6.21584 11.6354 6.16459 12.1453C6.13664 12.4222 6.15062 12.7043 6.15217 12.9847C6.15217 13.0197 6.18944 13.0565 6.21428 13.0863C6.38043 13.2826 6.54658 13.4789 6.71273 13.6751C6.75621 13.726 6.75931 13.7768 6.7267 13.8416C6.4441 14.4147 6.22671 15.0192 6.04037 15.6378C6.03416 15.6589 6.02795 15.6781 6.01863 15.6974C6.01087 15.7132 6 15.7255 6.00155 15.7237C5.82453 15.2488 5.64907 14.7669 5.46739 14.2885C5.40993 14.136 5.34006 13.9871 5.26708 13.8416C5.23447 13.7768 5.24068 13.7277 5.28261 13.6769C5.43633 13.4911 5.58385 13.3001 5.74534 13.1231C5.809 13.053 5.84006 12.9882 5.83695 12.8883C5.82919 12.6237 5.85093 12.3538 5.81987 12.0927C5.75621 11.5723 5.51708 11.1377 5.22049 10.7469C5.02018 10.4823 4.78726 10.251 4.57143 10.0021C4.53105 9.9548 4.49844 9.9548 4.45807 9.99861C4.10093 10.3911 3.73913 10.7784 3.3913 11.1815C3.30434 11.2814 3.25776 11.4356 3.21584 11.5723C3.17857 11.6949 3.23292 11.7861 3.33851 11.8421C3.39596 11.8719 3.45807 11.8947 3.51863 11.9192C3.64285 11.9683 3.70807 12.0735 3.6972 12.2171C3.68788 12.3381 3.59161 12.4467 3.4736 12.466C3.02639 12.5378 2.77018 12.105 2.83229 11.6862C2.8882 11.3006 3.09006 11.0097 3.34472 10.7644C3.65062 10.47 3.96118 10.1809 4.26863 9.88821C4.34782 9.81286 4.34782 9.79533 4.26708 9.72524C3.77484 9.2994 3.25931 8.92439 2.65372 8.72637C2.48292 8.67029 2.31832 8.65452 2.15062 8.67905C1.8882 8.71761 1.75931 8.9349 1.67702 9.19251C1.64441 9.29765 1.62577 9.40805 1.59627 9.53422C1.03416 9.19601 0.47981 8.85955 -0.0015564 8.36537C0.481363 7.87821 1.0295 7.52948 1.59782 7.19828C1.61801 7.30167 1.63354 7.39279 1.65683 7.48216C1.67702 7.55752 1.69875 7.63638 1.73292 7.70472C1.93012 8.08674 2.10093 8.11829 2.46584 8.04994C2.85248 7.97809 3.20962 7.79409 3.54347 7.56277C3.76552 7.41032 3.9767 7.23508 4.19099 7.0686C4.2236 7.04231 4.25 7.00726 4.2795 6.97572C4.02018 6.73564 3.76863 6.50608 3.52018 6.27126C3.26397 6.02767 3.03416 5.75956 2.90838 5.40207C2.80279 5.10241 2.77795 4.80099 2.94875 4.5171C3.04813 4.35238 3.18012 4.24548 3.3649 4.24724C3.5 4.24899 3.60714 4.3664 3.62267 4.51886C3.63975 4.69234 3.58695 4.77821 3.43012 4.82553C3.23602 4.88511 3.19254 4.94469 3.25931 5.16024C3.31832 5.34949 3.39596 5.54401 3.50931 5.69297C3.78261 6.05045 4.07919 6.38166 4.36956 6.72162C4.42702 6.78821 4.49689 6.80749 4.56521 6.73564C4.93944 6.35011 5.29969 5.94881 5.55434 5.44938C5.73602 5.09189 5.85714 4.71337 5.8354 4.28929C5.82608 4.11931 5.83851 3.94757 5.83074 3.77759C5.82919 3.73028 5.80124 3.67771 5.77174 3.64266C5.61335 3.45165 5.45341 3.26414 5.29037 3.07838C5.22826 3.00829 5.23913 2.9417 5.27639 2.86459C5.54347 2.31609 5.75155 1.7378 5.93167 1.14724C5.94875 1.09116 5.96428 1.03333 5.98913 0.949219C6.04192 1.11219 6.07919 1.25414 6.13198 1.38732C6.32919 1.89201 6.53261 2.3932 6.72826 2.89789C6.74379 2.93644 6.73602 3.01179 6.71273 3.04158C6.55434 3.24136 6.39285 3.43763 6.2236 3.62689C6.17702 3.67946 6.14751 3.72502 6.14907 3.80213C6.15528 4.079 6.13975 4.35764 6.16615 4.62926C6.20341 5.01303 6.36956 5.34599 6.55434 5.66317C6.78882 6.06798 7.09472 6.40093 7.41459 6.71812C7.51087 6.8145 7.53261 6.80924 7.62577 6.71461C7.95497 6.3764 8.27484 6.02943 8.53571 5.62112C8.65062 5.44237 8.75621 5.25311 8.74844 5.01479C8.74534 4.93242 8.7267 4.87284 8.64441 4.86057C8.61956 4.85707 8.59472 4.84305 8.57143 4.83429C8.3882 4.76945 8.32608 4.63276 8.38975 4.43474C8.44099 4.28053 8.6118 4.19992 8.75931 4.26301C8.99379 4.36289 9.15062 4.61874 9.16149 4.91139C9.17236 5.20054 9.08851 5.45464 8.9472 5.68771C8.71428 6.07148 8.39441 6.35362 8.07764 6.63926C7.97671 6.73038 7.87422 6.81801 7.77018 6.90387C7.71894 6.94593 7.70962 6.98624 7.76242 7.03355C8.30279 7.50845 8.87422 7.91325 9.56211 8.05345C9.65528 8.07272 9.75776 8.07973 9.84938 8.0552C9.93944 8.03242 10.0357 7.98335 10.1009 7.91325C10.2562 7.74678 10.354 7.53999 10.3618 7.2894C10.3618 7.27538 10.3665 7.26136 10.3696 7.24734C10.3711 7.24033 10.3773 7.23683 10.3929 7.2158L10.3975 7.22281ZM6.00465 4.98149C5.98292 5.0253 5.96894 5.04458 5.96273 5.06736C5.73292 5.82615 5.30434 6.42372 4.78726 6.95294C4.70807 7.03355 4.70652 7.04932 4.79037 7.12818C5.11956 7.4366 5.44875 7.74502 5.77795 8.05345C5.84627 8.11829 5.9177 8.23044 5.98757 8.22869C6.06211 8.22869 6.13975 8.1253 6.21118 8.0587C6.55279 7.74327 6.8913 7.42609 7.23136 7.1089C7.27795 7.06509 7.28726 7.03005 7.23757 6.97923C7.13354 6.87058 7.03105 6.76018 6.93167 6.64627C6.57608 6.24322 6.28726 5.78759 6.09782 5.25837C6.06677 5.1725 6.04037 5.08663 6.00621 4.97974L6.00465 4.98149ZM5.97981 11.7352C5.98757 11.7352 5.99534 11.7352 6.0031 11.737C6.01397 11.7107 6.02329 11.6862 6.03416 11.6599C6.1382 11.4145 6.23292 11.164 6.35093 10.9274C6.55745 10.5103 6.85559 10.1756 7.15372 9.8444C7.25931 9.72699 7.26242 9.72348 7.15372 9.61834C6.79348 9.27136 6.43167 8.92965 6.07142 8.58267C6.00465 8.51783 5.95652 8.54587 5.90372 8.59669C5.53726 8.94542 5.17236 9.2959 4.80434 9.64287C4.74844 9.69545 4.74534 9.73575 4.79969 9.79183C4.88664 9.88295 4.97049 9.97933 5.05434 10.074C5.4208 10.4963 5.72049 10.9677 5.91615 11.5197C5.94099 11.5898 5.95962 11.6616 5.97981 11.7335V11.7352ZM9.25 8.35661C9.23292 8.34785 9.20962 8.33734 9.18633 8.32507C8.81211 8.10777 8.43478 7.89924 8.06677 7.66967C7.88664 7.55752 7.72515 7.41032 7.5559 7.27889C7.50155 7.23683 7.45341 7.20704 7.38509 7.27012C7.04813 7.57855 6.70652 7.88171 6.3649 8.18488C6.29658 8.24446 6.22826 8.30404 6.14907 8.37063C6.17702 8.40918 6.19875 8.44423 6.22515 8.47052C6.57919 8.80698 6.93478 9.14169 7.29037 9.47815C7.40528 9.5868 7.40838 9.58154 7.52795 9.48866C7.76863 9.30116 8.0031 9.10138 8.25621 8.93841C8.57764 8.72987 8.91459 8.55113 9.24844 8.35661H9.25ZM2.73602 8.36187C2.77018 8.38465 2.78571 8.39516 2.80124 8.40568C3.18944 8.63174 3.58074 8.84904 3.96273 9.08736C4.15217 9.20653 4.32298 9.36599 4.49844 9.51144C4.56677 9.56927 4.61801 9.58504 4.68789 9.50794C4.78416 9.40279 4.89285 9.30992 4.99689 9.21354C5.25155 8.97346 5.50465 8.73513 5.75931 8.49505C5.85093 8.40918 5.84782 8.36888 5.7531 8.28652C5.6677 8.21467 5.5854 8.13931 5.5031 8.06571C5.21894 7.80986 4.93478 7.55401 4.65062 7.29991C4.54192 7.20178 4.51708 7.20529 4.40838 7.29991C4.02484 7.63988 3.60714 7.91676 3.16459 8.14632C3.02795 8.21642 2.8913 8.28301 2.73757 8.36012L2.73602 8.36187ZM9.98602 8.35311C10.0155 8.37939 10.0264 8.39341 10.0388 8.40217C10.2391 8.52835 10.4037 8.69307 10.5186 8.92264C10.5342 8.95243 10.6056 8.97696 10.6382 8.96294C10.882 8.8578 11.0916 8.69483 11.2531 8.46C11.2966 8.39692 11.2981 8.33909 11.2531 8.276C11.0901 8.04819 10.882 7.88872 10.646 7.77482C10.6149 7.75904 10.5419 7.77832 10.5248 7.80811C10.3929 8.04118 10.236 8.24095 9.98602 8.35486V8.35311ZM2.01087 8.37414C1.99689 8.35486 1.99379 8.3461 1.98757 8.34259C1.9736 8.33383 1.95962 8.32507 1.94565 8.31806C1.7531 8.20941 1.59627 8.0587 1.5 7.83965C1.46273 7.75554 1.4177 7.73977 1.34627 7.77482C1.10248 7.88872 0.905276 8.07097 0.742233 8.30053C0.720493 8.33033 0.720493 8.40918 0.74068 8.44248C0.91304 8.72462 1.16459 8.88233 1.44254 9.01376C1.56366 8.71761 1.75776 8.51608 2.01242 8.37414H2.01087ZM5.99534 14.7634C6.00621 14.7494 6.01708 14.7406 6.02174 14.7283C6.13975 14.4427 6.26087 14.1588 6.37422 13.8714C6.3882 13.8364 6.38043 13.7698 6.35869 13.7435C6.25931 13.6261 6.15528 13.5157 6.04503 13.4105C6.02329 13.3895 5.95807 13.393 5.93478 13.414C5.83229 13.5104 5.73602 13.6173 5.63975 13.7225C5.59161 13.775 5.59938 13.8346 5.62733 13.9012C5.74223 14.1763 5.85248 14.4532 5.96584 14.7301C5.97049 14.7424 5.98136 14.7511 5.99223 14.7634H5.99534ZM6.00155 1.96912C5.97671 2.00942 5.96584 2.02169 5.95962 2.03746C5.84627 2.30908 5.73136 2.5807 5.62422 2.85583C5.60869 2.89613 5.61335 2.97149 5.63664 3.00303C5.72049 3.10993 5.81677 3.20806 5.91149 3.30444C5.96273 3.35702 6.02795 3.35877 6.07919 3.30795C6.17702 3.20981 6.26863 3.10467 6.36025 2.99953C6.40372 2.94871 6.39596 2.89438 6.36801 2.8313C6.27795 2.63503 6.1941 2.43525 6.10869 2.23548C6.07453 2.15487 6.04348 2.07426 6.00155 1.96912Z" fill="#F6D69A"/>
<path d="M5.55589 6.72682C5.60714 6.71806 5.65372 6.70229 5.70186 6.70229C5.79192 6.70229 5.81987 6.65322 5.81832 6.56034C5.81521 6.44468 5.81987 6.32727 5.81832 6.21162C5.81676 6.13801 5.84005 6.10998 5.90838 6.10822C6.17856 6.10297 6.17546 6.09946 6.18012 6.40438C6.18477 6.70229 6.13664 6.69528 6.43322 6.72857C6.4503 6.87052 6.37887 7.01246 6.24844 7.06679C6.18322 7.09307 6.16769 7.11936 6.16769 7.20347C6.16769 7.42428 6.13198 7.64157 5.99689 7.83259C5.87577 7.64157 5.82453 7.4383 5.83229 7.21925C5.8354 7.12987 5.81055 7.08782 5.73446 7.05277C5.60248 6.98968 5.56055 6.9336 5.55589 6.72857V6.72682Z" fill="#F6D69A"/>
<path d="M6.43168 10.0145C6.17391 10.0443 6.17547 10.0443 6.17547 10.3352C6.17547 10.428 6.1941 10.5472 6.15062 10.6068C6.11801 10.6506 6.00311 10.612 5.92391 10.619C5.83851 10.6278 5.80901 10.591 5.81522 10.4946C5.82143 10.4053 5.81677 10.3124 5.81677 10.223C5.81677 10.06 5.77795 10.018 5.63354 10.0197C5.6118 10.0197 5.59006 10.0232 5.56832 10.0267C5.54969 9.83397 5.58851 9.74986 5.74224 9.69378C5.81211 9.6675 5.82764 9.62544 5.82919 9.55009C5.82919 9.35557 5.86025 9.16806 5.94255 8.99458C5.95497 8.97004 5.96894 8.94726 5.99534 8.89819C6.03416 8.9788 6.07919 9.04014 6.09317 9.10848C6.12578 9.25743 6.14752 9.41165 6.16304 9.56411C6.16926 9.62544 6.18323 9.65172 6.23447 9.67275C6.38509 9.73234 6.44099 9.83222 6.43012 10.0162L6.43168 10.0145Z" fill="#F6D69A"/>
<path d="M7.75466 8.86314C7.60249 8.85613 7.48603 8.80005 7.43944 8.63007C7.42236 8.56698 7.38975 8.55997 7.33851 8.55997C7.13354 8.56348 6.95187 8.47586 6.75777 8.3602C6.94721 8.23402 7.13199 8.16568 7.33385 8.17795C7.39752 8.18145 7.42392 8.16919 7.441 8.09734C7.47205 7.96591 7.59317 7.88705 7.75777 7.88354C7.75777 7.9256 7.76087 7.96766 7.75777 8.00972C7.75 8.11311 7.79814 8.15692 7.88199 8.16042C7.99069 8.16568 8.10093 8.17094 8.20963 8.17269C8.27329 8.17269 8.29969 8.19898 8.29814 8.27783C8.29503 8.60203 8.30435 8.57399 8.03727 8.581C8.00466 8.581 7.97361 8.581 7.941 8.581C7.76864 8.58275 7.75311 8.60028 7.75932 8.79479C7.75932 8.81582 7.75777 8.83685 7.75621 8.86138L7.75466 8.86314Z" fill="#F6D69A"/>
<path d="M5.22515 8.35497C5.09005 8.49165 4.93788 8.53722 4.77794 8.56175C4.76241 8.5635 4.74533 8.56525 4.7298 8.56175C4.62887 8.54948 4.54968 8.55474 4.52173 8.70369C4.49999 8.81585 4.36955 8.87017 4.24067 8.85265C4.23446 8.80008 4.22359 8.7475 4.22049 8.69318C4.21738 8.60731 4.1739 8.58278 4.10713 8.58103C4.00154 8.57927 3.89595 8.57226 3.78881 8.57051C3.73291 8.57051 3.70496 8.54773 3.70651 8.48114C3.71428 8.12715 3.63819 8.17973 3.96428 8.1587C3.98291 8.1587 4.0031 8.1587 4.02173 8.1587C4.21893 8.1587 4.22049 8.1587 4.23291 7.9414C4.23601 7.88182 4.2531 7.86605 4.30434 7.87656C4.42546 7.9046 4.52328 7.96243 4.55123 8.11314C4.56365 8.17797 4.60092 8.17622 4.64595 8.17272C4.85247 8.15519 5.03415 8.23055 5.22515 8.35321V8.35497Z" fill="#F6D69A"/>
</g>
<defs>
<clipPath id="clip0_5209_6624">
<rect width="12" height="14.7727" fill="white" transform="translate(0 0.95459)"/>
</clipPath>
</defs>
</svg>
