<svg width="9" height="12" viewBox="0 0 9 12" fill="none" xmlns="http://www.w3.org/2000/svg">
<g clip-path="url(#clip0_4886_24986)">
<g opacity="0.6">
<path d="M4.19046 11.9999C3.8428 11.516 3.50582 11.0582 3.18022 10.5919C2.26286 9.27692 1.3914 7.93345 0.692887 6.48586C0.408925 5.89684 0.143111 5.29677 0.0431199 4.64571C-0.104554 3.68268 0.132436 2.79166 0.639867 1.97516C1.5736 0.473025 3.32612 -0.267527 5.06511 0.0879522C6.75999 0.434517 8.07767 1.83147 8.35808 3.56252C8.47728 4.29879 8.33068 4.99014 8.06344 5.66865C7.60654 6.8285 6.9952 7.90778 6.31412 8.94462C5.66933 9.9262 4.98363 10.8803 4.315 11.8462C4.28511 11.8894 4.24881 11.9282 4.1901 11.9999H4.19046ZM2.1707 4.20074C2.16572 5.31959 3.06955 6.23735 4.18369 6.24483C5.30709 6.25268 6.22872 5.34027 6.23192 4.21678C6.23512 3.0876 5.33128 2.18018 4.20006 2.17661C3.08165 2.17305 2.17568 3.07654 2.1707 4.20038V4.20074Z" fill="#F6D69A"/>
</g>
</g>
<defs>
<clipPath id="clip0_4886_24986">
<rect width="8.4" height="12" fill="white"/>
</clipPath>
</defs>
</svg>
