<svg width="12" height="13" viewBox="0 0 12 13" fill="none" xmlns="http://www.w3.org/2000/svg">
<path opacity="0.6" d="M5.63333 6.5C7.41135 6.5 8.85238 5.04512 8.85238 3.25C8.85238 1.45488 7.41135 0 5.63333 0C3.85531 0 2.41429 1.45488 2.41429 3.25C2.41429 5.04512 3.85531 6.5 5.63333 6.5ZM8.04259 7.32773L6.84048 12.1875L6.03571 8.73438L6.84048 7.3125H4.42619L5.23095 8.73438L4.42619 12.1875L3.22408 7.32773C1.43097 7.41406 0 8.89434 0 10.725V11.7812C0 12.4541 0.540699 13 1.20714 13H10.0595C10.726 13 11.2667 12.4541 11.2667 11.7812V10.725C11.2667 8.89434 9.8357 7.41406 8.04259 7.32773Z" fill="#F6D69A"/>
</svg>
