<svg width="20" height="21" viewBox="0 0 20 21" fill="none" xmlns="http://www.w3.org/2000/svg">
<path fill-rule="evenodd" clip-rule="evenodd" d="M15.2942 14.7739L19.0826 18.3542C19.2792 18.5405 19.4822 18.7207 19.6662 18.9169C19.7705 19.009 19.8539 19.1203 19.9113 19.244C19.9687 19.3677 19.9989 19.5011 20 19.6362C20.0011 19.7713 19.9731 19.9052 19.9178 20.0297C19.8624 20.1542 19.7809 20.2667 19.6781 20.3604C19.5753 20.4541 19.4534 20.5269 19.3199 20.5745C19.1864 20.6221 19.044 20.6434 18.9015 20.6371C18.759 20.6309 18.6193 20.5972 18.491 20.5381C18.3627 20.479 18.2485 20.3958 18.1553 20.2936C16.878 19.1061 15.5945 17.9227 14.3648 16.6892C14.2825 16.5729 14.1759 16.4737 14.0517 16.3978C13.9274 16.3218 13.7881 16.2708 13.6422 16.2477C13.4964 16.2246 13.3471 16.2301 13.2035 16.2636C13.0599 16.2972 12.9251 16.3582 12.8074 16.4429C11.6145 17.015 10.3 17.323 8.96309 17.3433C7.62615 17.3637 6.3018 17.096 5.09018 16.5605C3.87856 16.0249 2.81138 15.2356 1.96927 14.2521C1.12716 13.2686 0.532164 12.1167 0.229285 10.8834C-0.0735941 9.65017 -0.0764356 8.36787 0.22096 7.13343C0.518355 5.89898 1.10821 4.74469 1.94594 3.75785C2.78367 2.771 3.84736 1.9774 5.05659 1.43704C6.26582 0.896685 7.58894 0.623736 8.92595 0.638773C10.5436 0.661823 12.1235 1.10435 13.4941 1.91828C14.8647 2.7322 15.9734 3.88634 16.6997 5.25523C17.426 6.62413 17.742 8.15539 17.6136 9.6825C17.4851 11.2096 16.9169 12.6741 15.9708 13.9168C15.7816 14.1882 15.5659 14.4365 15.2942 14.7739ZM8.78956 15.3536C10.1168 15.3607 11.4164 14.9947 12.5238 14.3019C13.6312 13.6091 14.4966 12.6207 15.0104 11.4619C15.5241 10.303 15.6632 9.02588 15.4099 7.79215C15.1566 6.55843 14.5223 5.42363 13.5874 4.53149C12.6526 3.63935 11.4591 3.03 10.1583 2.78059C8.85742 2.53118 7.50764 2.65295 6.27992 3.13047C5.05219 3.60799 4.00174 4.41975 3.26159 5.46301C2.52143 6.50626 2.12486 7.73405 2.12212 8.99087C2.11458 9.8244 2.28145 10.6511 2.61309 11.4232C2.94473 12.1954 3.43457 12.8977 4.05435 13.4896C4.67413 14.0815 5.41158 14.5513 6.22413 14.872C7.03667 15.1926 7.90823 15.3576 8.7885 15.3576L8.78956 15.3536Z" fill="white"/>
</svg>
