<svg width="167" height="31" viewBox="0 0 167 31" fill="none" xmlns="http://www.w3.org/2000/svg">
<path d="M14.606 0L17.7016 10.4799H27.719L19.6147 16.9569L22.7103 27.4368L14.606 20.9598L6.50168 27.4368L9.59725 16.9569L1.49294 10.4799H11.5104L14.606 0Z" fill="#F6D69A"/>
<path d="M49.0757 0L52.1713 10.4799H62.1888L54.0845 16.9569L57.18 27.4368L49.0757 20.9598L40.9714 27.4368L44.067 16.9569L35.9627 10.4799H45.9801L49.0757 0Z" fill="#F6D69A"/>
<path d="M83.5454 0L86.641 10.4799H96.6585L88.5542 16.9569L91.6498 27.4368L83.5454 20.9598L75.4411 27.4368L78.5367 16.9569L70.4324 10.4799H80.4499L83.5454 0Z" fill="#F6D69A"/>
<path d="M118.015 0L121.111 10.4799H131.128L123.024 16.9569L126.119 27.4368L118.015 20.9598L109.911 27.4368L113.006 16.9569L104.902 10.4799H114.92L118.015 0Z" fill="#F6D69A"/>
<path d="M152.485 0L155.58 10.4799H165.598L157.494 16.9569L160.589 27.4368L152.485 20.9598L144.381 27.4368L147.476 16.9569L139.372 10.4799H149.389L152.485 0Z" fill="#F6D69A"/>
</svg>
