<svg width="17" height="15" viewBox="0 0 17 15" fill="none" xmlns="http://www.w3.org/2000/svg">
<path id="Vector" opacity="0.8" d="M8.75102 0C4.46786 0 0.995117 3.35936 0.995117 7.5C0.995117 11.6431 4.46786 15 8.75102 15C13.0342 15 16.5069 11.6431 16.5069 7.5C16.5069 3.35936 13.0342 0 8.75102 0ZM8.75102 3.32661C9.47645 3.32661 10.0645 3.89528 10.0645 4.59677C10.0645 5.29827 9.47645 5.86694 8.75102 5.86694C8.0256 5.86694 7.43752 5.29827 7.43752 4.59677C7.43752 3.89528 8.0256 3.32661 8.75102 3.32661ZM10.5024 11.0081C10.5024 11.2085 10.3343 11.371 10.1271 11.371H7.37497C7.16772 11.371 6.99969 11.2085 6.99969 11.0081V10.2823C6.99969 10.0818 7.16772 9.91935 7.37497 9.91935H7.75026V7.98387H7.37497C7.16772 7.98387 6.99969 7.82138 6.99969 7.62097V6.89516C6.99969 6.69475 7.16772 6.53226 7.37497 6.53226H9.3765C9.58375 6.53226 9.75178 6.69475 9.75178 6.89516V9.91935H10.1271C10.3343 9.91935 10.5024 10.0818 10.5024 10.2823V11.0081Z" fill="white"/>
</svg>
