<svg width="121" height="16" viewBox="0 0 121 16" fill="none" xmlns="http://www.w3.org/2000/svg">
<g clip-path="url(#clip0_5116_3551)">
<path d="M0.878662 -0.0129395H7.68028C9.3874 -0.0129395 10.6629 0.358564 11.5069 1.10157C11.8865 1.39724 12.1972 1.77993 12.4156 2.22068C12.6339 2.66143 12.7541 3.14869 12.7671 3.64557V3.88785C12.7519 4.52367 12.551 5.13912 12.1917 5.65048C11.7883 6.25076 11.2288 6.7156 10.5805 6.9891C11.5297 7.2297 12.3723 7.8046 12.9685 8.61847C13.4572 9.2998 13.7273 10.1271 13.7396 10.9807V11.2473C13.7264 11.8375 13.5859 12.4169 13.3287 12.9415C13.0715 13.4662 12.7043 13.9225 12.255 14.2758C11.2652 15.1481 9.79788 15.5902 7.85291 15.5902H0.878662V15.5236L2.36328 14.1607V1.44077L0.878662 0.0779172V-0.0129395ZM4.9067 1.41654V6.6499H7.66302C8.1439 6.66407 8.62168 6.56472 9.06133 6.35916C9.39682 6.20532 9.67983 5.94756 9.87268 5.62019C10.0175 5.37495 10.1298 5.11002 10.2064 4.83276C10.2424 4.62098 10.2559 4.40564 10.2467 4.19071V3.89996C10.2393 3.27003 10.0096 2.66551 9.60223 2.20397C9.31721 1.91999 8.97755 1.7038 8.60625 1.57003C8.23494 1.43627 7.84066 1.38806 7.45011 1.42866L4.9067 1.41654ZM4.9067 8.07938V13.4097C4.89213 13.5126 4.90069 13.6178 4.93169 13.7166C4.96269 13.8155 5.01526 13.9053 5.08519 13.9789C5.15512 14.0525 5.24047 14.1079 5.33438 14.1405C5.4283 14.1731 5.52817 14.1821 5.62599 14.1668H7.59972C8.82348 14.1668 9.69814 13.8619 10.2237 13.2522C10.7159 12.7218 10.996 12.0128 11.0063 11.2715V10.9565C11.0023 10.2144 10.726 9.50256 10.2352 8.96978C9.89936 8.64505 9.50256 8.39803 9.07042 8.24466C8.63828 8.0913 8.1804 8.03499 7.72632 8.07938H4.9067Z" fill="white"/>
<path d="M22.0029 -0.012207L27.7572 14.1675L29.2361 15.5304V15.597H23.5451V15.5304L25.0297 14.1554L23.6717 10.7998H18.0267L16.7089 14.1796L18.1878 15.5304V15.597H13.6994V15.5304L15.161 14.1675L20.7485 -0.012207H22.0029ZM18.6136 9.37634H23.1192L20.8175 3.70687L18.6136 9.37634Z" fill="white"/>
<path d="M30.22 -0.012207H36.7166C38.6692 -0.012207 40.1308 0.421887 41.1014 1.29008C41.5468 1.64559 41.9098 2.10288 42.163 2.62748C42.4162 3.15208 42.5529 3.73032 42.563 4.31864V4.58515C42.5416 5.62985 42.1278 6.62304 41.4121 7.3472C40.4881 8.26733 39.2715 8.79208 37.9998 8.81909C39.1162 9.2552 40.1961 10.3334 41.2395 12.0536C42.4134 14.0161 43.5854 15.2437 44.7554 15.7363V15.803H44.0591C43.3425 15.7944 42.6303 15.6844 41.9415 15.4759C41.3463 15.2991 40.7867 15.0097 40.2901 14.6218C39.8585 14.2842 39.4596 13.9028 39.0989 13.4831C38.7489 13.0557 38.4314 12.6 38.1494 12.1202C37.643 11.2078 37.0429 10.3567 36.3598 9.58228C35.8771 9.11979 35.2396 8.87796 34.5875 8.90994H34.2077V14.1494L35.6923 15.5122V15.5788H30.2257V15.5122L31.7103 14.1494V1.42939L30.2257 0.0665351L30.22 -0.012207ZM34.248 1.41728V7.5168H36.7166C37.1585 7.56557 37.6053 7.51344 38.0263 7.36396C38.4474 7.21448 38.8328 6.97118 39.1565 6.65063C39.631 6.11167 39.8959 5.40477 39.8988 4.66995V4.35498C39.897 4.04694 39.8444 3.74156 39.7434 3.45247C39.6176 3.11463 39.445 2.79825 39.2313 2.51362C38.9512 2.16076 38.5852 1.89483 38.1725 1.74436C37.6331 1.54409 37.064 1.44765 36.4922 1.45968L34.248 1.41728Z" fill="white"/>
<path d="M45.705 -0.012207H52.5008C54.2079 -0.012207 55.4835 0.359297 56.3275 1.1023C56.7071 1.39797 57.0178 1.78066 57.2361 2.22141C57.4544 2.66216 57.5747 3.14942 57.5877 3.6463V3.88858C57.5728 4.52447 57.3719 5.14004 57.0122 5.65121C56.6061 6.24867 56.0474 6.71279 55.401 6.98983C56.348 7.23214 57.1882 7.80684 57.7833 8.6192C58.2745 9.29911 58.5449 10.1274 58.5544 10.9815V11.248C58.5414 11.8376 58.4016 12.4165 58.1455 12.9411C57.8893 13.4657 57.5235 13.9223 57.0755 14.2766C56.0858 15.1488 54.6184 15.591 52.6677 15.591H45.705V15.5243L47.1896 14.1615V1.4415L45.705 0.0786497V-0.012207ZM49.733 1.41728V6.65063H52.4836C52.9645 6.66605 53.4426 6.56665 53.8819 6.35989C54.2189 6.2061 54.5038 5.94847 54.699 5.62092C54.8399 5.37434 54.9502 5.10969 55.027 4.8335C55.0824 4.61819 55.1114 4.39632 55.1133 4.17327V3.88253C55.1038 3.25189 54.872 2.64747 54.463 2.18653C54.1789 1.90303 53.8402 1.6871 53.4699 1.55333C53.0996 1.41957 52.7063 1.37111 52.3167 1.41122L49.733 1.41728ZM49.733 8.08012V13.4104C49.7184 13.5134 49.727 13.6185 49.758 13.7173C49.789 13.8162 49.8416 13.906 49.9115 13.9796C49.9814 14.0533 50.0668 14.1086 50.1607 14.1412C50.2546 14.1739 50.3545 14.1829 50.4523 14.1675H52.4203C53.6517 14.1675 54.5283 13.8627 55.05 13.2529C55.5397 12.7208 55.8194 12.0129 55.8326 11.2722V10.9573C55.8265 10.2144 55.5482 9.50268 55.0557 8.97052C54.5436 8.3648 53.7035 8.08012 52.5469 8.08012H49.733Z" fill="white"/>
<path d="M66.8233 -0.012207L72.6064 14.1675L74.1198 15.5425V15.6091H68.4287V15.5425L69.9076 14.1675L68.5496 10.8119H62.9046L61.5868 14.1918L63.0714 15.5425V15.6091H58.5485V15.5425L60.0101 14.1796L65.5746 -0.012207H66.8233ZM63.4339 9.37634H67.9396L65.6379 3.70687L63.4339 9.37634Z" fill="white"/>
<path d="M81.9687 -0.012207L87.7518 14.1675L89.2364 15.5304V15.597H83.5454V15.5304L85.053 14.1675L83.695 10.8119H78.05L76.7323 14.1918L78.2169 15.5425V15.6091H73.694V15.5425L75.1556 14.1796L80.72 -0.012207H81.9687ZM78.5794 9.37634H83.085L80.7833 3.70687L78.5794 9.37634Z" fill="white"/>
<path d="M90.1859 -0.012207H96.671C98.616 -0.012207 100.078 0.421887 101.056 1.29008C101.5 1.64651 101.863 2.10399 102.116 2.62839C102.369 3.15279 102.506 3.73058 102.517 4.31864V4.58515C102.495 5.6297 102.082 6.62266 101.367 7.3472C100.443 8.26832 99.2262 8.79324 97.9542 8.81909C99.0705 9.2552 100.152 10.3334 101.2 12.0536C102.351 14.0161 103.522 15.2437 104.716 15.7363V15.803H104.042C103.326 15.7944 102.613 15.6844 101.925 15.4759C101.33 15.2966 100.771 15.0074 100.273 14.6218C99.8434 14.2842 99.4464 13.9028 99.0878 13.4831C98.7341 13.0574 98.4146 12.6016 98.1326 12.1202C97.6261 11.2078 97.026 10.3567 96.343 9.58228C96.105 9.35346 95.8264 9.17629 95.5233 9.06092C95.2202 8.94555 94.8984 8.89425 94.5764 8.90994H94.1909V14.1494L95.6755 15.5122V15.5788H90.2089V15.5122L91.6935 14.1494V1.42939L90.2089 0.0665351L90.1859 -0.012207ZM94.2139 1.41728V7.5168H96.7113C97.1495 7.56162 97.5917 7.50754 98.0084 7.35817C98.4252 7.20881 98.8069 6.9676 99.1281 6.65063C99.6026 6.11167 99.8675 5.40477 99.8704 4.66995V4.35498C99.8666 4.04661 99.8121 3.74126 99.7093 3.45247C99.5858 3.11473 99.4152 2.79828 99.2029 2.51362C98.9217 2.1621 98.5561 1.89645 98.1441 1.74436C97.6028 1.54414 97.0317 1.44772 96.4581 1.45968L94.2139 1.41728Z" fill="white"/>
<path d="M105.671 -0.0122014H112.346C113.747 -0.0265219 115.135 0.270701 116.42 0.860025C117.66 1.42333 118.725 2.34271 119.493 3.51305C120.297 4.71954 120.717 6.16414 120.69 7.63795V7.94686C120.723 9.43102 120.304 10.8874 119.493 12.1021C118.721 13.2657 117.657 14.1802 116.42 14.743C115.135 15.3323 113.747 15.6295 112.346 15.6152H105.671V15.5486L107.155 14.1857V1.46574L105.671 0.102884V-0.0122014ZM109.699 1.41728V13.4104C109.684 13.5098 109.69 13.6115 109.718 13.7078C109.746 13.8042 109.794 13.8927 109.858 13.9667C109.923 14.0408 110.003 14.0984 110.092 14.1353C110.181 14.1721 110.277 14.1873 110.372 14.1796H112.34C113.086 14.2098 113.83 14.075 114.524 13.7839C115.218 13.4928 115.846 13.0519 116.368 12.4897C116.901 11.8905 117.314 11.1853 117.584 10.4156C117.853 9.64583 117.974 8.82706 117.939 8.00743V7.60161C117.974 6.78103 117.852 5.96147 117.58 5.19153C117.308 4.42159 116.892 3.71693 116.357 3.11933C115.838 2.5623 115.216 2.12452 114.528 1.83364C113.841 1.54276 113.104 1.40512 112.363 1.42939L109.699 1.41728Z" fill="white"/>
</g>
<defs>
<clipPath id="clip0_5116_3551">
<rect width="119.811" height="15.8333" fill="white" transform="translate(0.878662)"/>
</clipPath>
</defs>
</svg>
