<svg width="41" height="25" viewBox="0 0 41 25" fill="none" xmlns="http://www.w3.org/2000/svg">
<path d="M3.4326 12.3646C3.67973 12.2979 3.93387 12.2644 4.18897 12.2649C4.44571 12.264 4.70144 12.299 4.94945 12.3689C4.70769 12.4581 4.45334 12.5035 4.19719 12.5032C3.93686 12.5012 3.67859 12.4544 3.4326 12.3646ZM22.2884 12.1783C21.7421 12.3744 21.2537 12.7173 20.8716 13.1732C20.4896 13.6291 20.2269 14.1821 20.1097 14.7777C19.991 14.1822 19.7273 13.6294 19.3446 13.1737C18.9619 12.7179 18.4734 12.3749 17.9269 12.1783C18.0338 12.2173 18.3955 11.9703 18.486 11.914C18.6737 11.797 18.85 11.6606 19.0121 11.5068C19.3305 11.1974 19.59 10.8268 19.7767 10.415C19.9352 10.0813 20.0473 9.72527 20.1097 9.35793C20.1708 9.72505 20.2816 10.081 20.4386 10.415C20.6272 10.8217 20.8881 11.1865 21.2073 11.4895C21.3678 11.6453 21.5443 11.7819 21.7334 11.8967C21.8074 11.9703 22.1815 12.2173 22.2884 12.1783ZM20.8085 12.1133C20.7756 12.1133 20.6605 12.044 20.6318 12.0267C20.5716 11.9894 20.5152 11.9458 20.4632 11.8967C20.3592 11.7993 20.274 11.6816 20.2125 11.5501C20.1617 11.4423 20.127 11.3268 20.1097 11.2079C20.099 11.2682 20.0839 11.3276 20.0645 11.3855C20.0482 11.442 20.0276 11.4971 20.0028 11.5501C19.9727 11.6155 19.9369 11.6779 19.8959 11.7364C19.8537 11.7939 19.8069 11.8475 19.7562 11.8967C19.7021 11.9449 19.6443 11.9883 19.5835 12.0267C19.5548 12.0267 19.4397 12.1263 19.4068 12.1133C19.5833 12.1766 19.7411 12.2875 19.8644 12.4349C19.9877 12.5824 20.0723 12.7612 20.1097 12.9538C20.1464 12.7616 20.2302 12.5828 20.3528 12.4354C20.4754 12.2879 20.6325 12.1769 20.8085 12.1133ZM35.2658 12.3689C35.5077 12.4578 35.762 12.5032 36.0181 12.5032C36.2784 12.5012 36.5367 12.4544 36.7827 12.3646C36.5369 12.2982 36.2842 12.2647 36.0304 12.2649C35.7723 12.2637 35.5152 12.2987 35.2658 12.3689ZM39.6109 12.9148C39.4962 12.9177 39.383 12.8873 39.2837 12.8269C39.1844 12.7666 39.1027 12.6786 39.0477 12.5726C38.3818 13.0058 37.5555 13.8073 36.3387 13.8376C36.5191 13.9885 36.6518 14.1935 36.7193 14.4256C36.7868 14.6576 36.786 14.9058 36.7169 15.1373C36.641 15.3445 36.5199 15.5301 36.3634 15.6789C36.2711 15.7741 36.1595 15.8461 36.0371 15.8896C35.9147 15.9331 35.7846 15.947 35.6564 15.9301C35.6564 15.9301 35.7057 15.8911 35.7139 15.8825L35.7509 15.8262C35.7835 15.7827 35.8123 15.7363 35.8372 15.6875C35.8882 15.5921 35.9164 15.4851 35.9194 15.3756C35.9194 14.5091 34.5259 13.8073 34.0039 13.0924C33.8323 13.5038 33.7308 13.9437 33.7038 14.3921V20.4575V22.706L36.0839 24.8722V24.9805H27.9406C25.8852 24.9805 22.4651 25.4137 20.1303 22.1991C17.7707 25.405 14.3753 24.9805 12.2953 24.9805H4.13142V24.8722L6.5074 22.706V22.0648C6.5074 21.9391 6.5074 21.8092 6.5074 21.6662V20.5051V14.4398C6.48179 13.9912 6.38016 13.551 6.20732 13.1401C5.68526 13.8549 4.29585 14.5784 4.29585 15.4233C4.29745 15.5324 4.32425 15.6394 4.37395 15.7352C4.39885 15.7839 4.42773 15.8303 4.46028 15.8738L4.49727 15.9301C4.49727 15.9301 4.54249 15.9821 4.55482 15.9778C4.42663 15.9946 4.29648 15.9808 4.17407 15.9373C4.05166 15.8938 3.94013 15.8217 3.84778 15.7265C3.69225 15.576 3.57255 15.389 3.49837 15.1806C3.43047 14.949 3.43022 14.7012 3.49767 14.4694C3.56511 14.2377 3.69712 14.0326 3.87656 13.8809C2.64335 13.8506 1.82121 13.0404 1.16761 12.6159C1.11325 12.7215 1.03232 12.8094 0.933699 12.8698C0.835078 12.9301 0.722579 12.9607 0.608553 12.9581C0.517277 12.9637 0.426064 12.9462 0.342467 12.9072C0.258871 12.8682 0.185298 12.8087 0.127841 12.7338C0.0703853 12.6588 0.0307001 12.5705 0.0120721 12.4762C-0.00655595 12.3818 -0.00359039 12.2842 0.0207233 12.1913C0.0522289 12.0814 0.111878 11.9829 0.193106 11.9064C0.274335 11.83 0.373995 11.7787 0.481122 11.7581C0.615286 11.7246 0.756135 11.7383 0.882266 11.7969C1.0084 11.8556 1.11292 11.956 1.17994 12.083C1.84998 11.6498 2.67623 10.8439 3.893 10.8179C3.71558 10.6727 3.58219 10.4761 3.50918 10.2521C3.43617 10.0282 3.4267 9.78672 3.48193 9.55722C3.54335 9.34561 3.66191 9.15744 3.82312 9.01567C3.91607 8.93729 4.02407 8.88112 4.13964 8.85104C4.23941 8.8276 4.34178 8.81885 4.44383 8.82505C3.71624 9.81283 5.59894 10.7616 6.21143 11.5458C6.39579 11.1387 6.50063 10.6967 6.51974 10.2461V2.2745L4.13964 0.108309V0H11.3005C14.5562 0.0996446 17.8776 0.350922 19.563 3.40525C19.8115 3.85365 19.9958 4.33835 20.1097 4.84359C20.2222 4.33853 20.405 3.85381 20.6523 3.40525C22.3459 0.350922 25.6591 0.0996446 28.9148 0H36.0839V0.108309L33.7038 2.2745V10.3197C33.7285 10.7459 33.8333 11.1626 34.0121 11.5458C34.6205 10.7616 36.5032 9.81283 35.7797 8.82505C35.8804 8.8188 35.9814 8.82755 36.0798 8.85104C36.1957 8.88003 36.3039 8.93631 36.3963 9.01567C36.5588 9.15622 36.6776 9.34484 36.7375 9.55722C36.7927 9.78672 36.7832 10.0282 36.7102 10.2521C36.6372 10.4761 36.5038 10.6727 36.3264 10.8179C37.5596 10.8439 38.3818 11.6584 39.0395 12.083C39.107 11.9565 39.2116 11.8565 39.3376 11.7979C39.4635 11.7394 39.6041 11.7254 39.7383 11.7581C39.8458 11.7777 39.9459 11.8287 40.0273 11.9053C40.1086 11.9819 40.168 12.081 40.1987 12.1913C40.2164 12.2813 40.2142 12.3745 40.1925 12.4635C40.1707 12.5526 40.1299 12.6352 40.0732 12.705C40.0164 12.7749 39.9452 12.8301 39.8651 12.8665C39.785 12.9028 39.698 12.9194 39.6109 12.9148ZM5.90313 12.3256C5.41187 11.9501 4.82052 11.7478 4.21364 11.7478C3.60675 11.7478 3.0154 11.9501 2.52414 12.3256C3.00478 12.7198 3.5964 12.9338 4.20541 12.9338C4.81442 12.9338 5.40605 12.7198 5.88669 12.3256H5.90313ZM8.71896 22.8749C8.70312 22.7678 8.67121 22.6639 8.62441 22.5673V22.5153C8.57781 22.4081 8.5553 22.291 8.55864 22.1731V21.6445C8.55864 21.2936 8.55864 21.077 8.55864 20.6741C8.55864 20.0632 8.55864 19.4394 8.59564 18.8372C8.59564 18.5166 8.59564 18.1873 8.61619 17.8667L8.64086 17.0002C8.64086 16.3677 8.67374 15.7005 8.68196 15.0637L8.65319 14.3142C8.66601 14.0862 8.66601 13.8576 8.65319 13.6296C8.63466 13.3872 8.59754 13.1467 8.5422 12.9105C8.51337 12.7866 8.47628 12.665 8.43121 12.5466C8.39885 12.4619 8.35893 12.3807 8.312 12.3039C8.35323 12.2365 8.38899 12.1655 8.41888 12.0917C8.45999 11.9829 8.49432 11.8715 8.52165 11.7581C8.5703 11.5397 8.60599 11.3183 8.62852 11.0952C8.64911 10.8692 8.65735 10.6421 8.65319 10.415L8.59564 6.84082C8.59564 6.09998 8.57098 5.33749 8.56686 4.58365V2.64275C8.56881 2.55749 8.58698 2.47352 8.6203 2.3958C8.63039 2.37348 8.63864 2.35029 8.64497 2.32649C8.65472 2.27957 8.65749 2.23133 8.65319 2.18352C8.65319 2.13153 8.61619 2.06221 8.47643 1.99722H8.27089C8.12702 2.06221 8.10647 2.13153 8.10647 2.18352C8.10259 2.24107 8.11102 2.29881 8.13113 2.35248L8.1558 2.4218C8.19032 2.49928 8.20989 2.58322 8.21334 2.66874V4.60965C8.21334 5.36348 8.21334 6.12598 8.18457 6.86248L8.13935 9.79116C8.13935 9.85615 8.13935 9.92114 8.13935 9.98612V10.0728C8.13935 10.9046 8.11469 11.7624 7.29666 12.239H7.26788H7.29255C7.4921 12.3768 7.65485 12.5662 7.76528 12.7892C7.76602 12.8007 7.76602 12.8123 7.76528 12.8238C7.92174 13.0696 8.02811 13.347 8.07769 13.6383C8.09642 13.8457 8.10466 14.0539 8.10236 14.2622V15.0247C8.10236 15.6702 8.12702 16.3244 8.14346 16.9656C8.14346 17.2515 8.14346 17.5461 8.14346 17.8321C8.14346 18.118 8.14346 18.4862 8.16813 18.8068C8.16813 19.409 8.20101 20.0286 8.20512 20.6438C8.20512 21.0467 8.20512 21.2633 8.20512 21.6185V22.1428C8.20928 22.2612 8.18526 22.3789 8.13524 22.485C8.13686 22.5023 8.13686 22.5197 8.13524 22.537C8.09027 22.6344 8.05844 22.7379 8.04069 22.8446C8.04069 22.9573 8.04069 23.0916 8.25445 23.2215H8.5052C8.74362 23.1219 8.71896 22.9789 8.70252 22.8749H8.71896ZM17.8981 16.658C17.6138 15.9843 17.1828 15.3906 16.6403 14.925C16.0983 14.4936 15.489 14.1652 14.8398 13.9546H14.7987C14.4183 13.7698 14.0049 13.6723 13.586 13.6686C13.5272 13.6643 13.4681 13.6643 13.4093 13.6686C13.1337 13.6858 12.8741 13.811 12.6817 14.0196C12.5478 14.1812 12.4696 14.3858 12.4597 14.6001C12.4534 14.6862 12.4617 14.7727 12.4844 14.8557C12.4844 14.912 12.5296 15.016 12.6036 15.0333C12.6776 15.0507 12.6323 15.0333 12.6365 15.0593C12.6406 15.0853 12.6365 15.0593 12.6365 15.0853C12.5936 15.1095 12.5448 15.1196 12.4964 15.1142C12.448 15.1088 12.4023 15.0882 12.3651 15.055C12.2814 14.9945 12.2017 14.9279 12.1267 14.8557C11.9963 14.7303 11.8853 14.5841 11.7979 14.4225C11.6609 14.1657 11.6021 13.8708 11.6293 13.5777C11.6526 13.3272 11.7194 13.0834 11.8266 12.8585C11.8266 12.8325 12.061 12.4252 12.0692 12.4252C11.8282 12.2576 11.6508 12.0061 11.5677 11.7147C11.502 11.4301 11.502 11.1329 11.5677 10.8483C11.6144 10.5926 11.7095 10.3495 11.8472 10.1334C11.8927 10.0477 11.9588 9.97614 12.039 9.92595C12.1191 9.87575 12.2103 9.84869 12.3035 9.84749C12.3035 9.84749 12.3035 9.84749 12.3035 9.87348C12.247 9.95406 12.2112 10.0487 12.1997 10.1481C12.1882 10.2476 12.2013 10.3485 12.2377 10.441C12.2776 10.5531 12.3392 10.6552 12.4184 10.741C12.4976 10.8267 12.5929 10.8942 12.6981 10.9392C12.8894 11.0174 13.0932 11.0557 13.2983 11.0519C13.7156 11.0397 14.1299 10.9727 14.5315 10.8526C15.2801 10.6444 15.9635 10.232 16.5128 9.65686C17.2677 8.98302 17.7979 8.07202 18.0256 7.05744C18.1869 6.16827 18.1503 5.25178 17.9187 4.38003C17.9633 4.94873 17.9371 5.52114 17.8406 6.08265C17.7674 6.92344 17.3853 7.70079 16.7759 8.24884C16.9656 7.90097 17.0807 7.51353 17.113 7.11376C17.1792 6.40169 17.0492 5.6846 16.7386 5.04839C16.428 4.41217 15.95 3.8838 15.3618 3.52655C14.0793 2.66008 11.1484 2.66008 11.1484 2.66008H10.2194V22.3767H11.8636C11.8636 22.3767 14.7987 22.4417 16.2744 21.025C16.7968 20.4951 17.1672 19.821 17.3432 19.0798C17.4443 18.5639 17.4443 18.0317 17.3432 17.5158C17.2644 17.228 17.1468 16.9537 16.9938 16.7013C17.395 17.0654 17.709 17.524 17.9105 18.04C18.1223 18.8432 18.2356 19.6716 18.2476 20.5051C18.5948 19.2221 18.47 17.8483 17.8981 16.658ZM23.8628 12.252C23.6778 12.3169 23.0406 11.8837 22.8926 11.7884C22.5625 11.5869 22.2538 11.3487 21.9719 11.0779C21.415 10.548 20.9589 9.91139 20.6277 9.20196C20.396 8.70295 20.2221 8.1764 20.1097 7.63364C19.9939 8.17597 19.8187 8.70227 19.5876 9.20196C19.2564 9.91139 18.8003 10.548 18.2434 11.0779C17.9615 11.3487 17.6528 11.5869 17.3226 11.7884C17.1664 11.8837 16.5375 12.3169 16.3525 12.252C17.2696 12.5818 18.0937 13.1483 18.75 13.8997C19.4062 14.6511 19.8736 15.5635 20.1097 16.554C20.344 15.5633 20.8103 14.6504 21.466 13.8989C22.1217 13.1473 22.9457 12.581 23.8628 12.252ZM29.9959 2.66008H29.0669C29.0669 2.66008 26.136 2.66008 24.8576 3.52655C24.2687 3.88298 23.7901 4.41121 23.4794 5.04763C23.1687 5.68406 23.0392 6.40156 23.1064 7.11376C23.1419 7.51406 23.2598 7.90139 23.4517 8.24884C22.8423 7.70079 22.4602 6.92344 22.387 6.08265C22.2935 5.53542 22.2645 4.97809 22.3007 4.42335C22.0691 5.2951 22.0325 6.21159 22.1938 7.10076C22.4216 8.11534 22.9517 9.02634 23.7066 9.70018C24.2581 10.2552 24.9364 10.6507 25.6756 10.8483C26.0773 10.9681 26.4915 11.035 26.9088 11.0476C27.1139 11.0521 27.3179 11.0139 27.509 10.9349C27.6134 10.8923 27.7084 10.8277 27.7883 10.745C27.8682 10.6623 27.9312 10.5633 27.9735 10.454C28.0099 10.3615 28.023 10.2606 28.0115 10.1611C27.9999 10.0617 27.9642 9.96705 27.9077 9.88648C27.9077 9.88648 27.9077 9.88648 27.9077 9.86048C28.001 9.86124 28.0924 9.88812 28.1726 9.93836C28.2527 9.98861 28.3188 10.0604 28.364 10.1464C28.5073 10.357 28.6093 10.5956 28.6641 10.8483C28.7278 11.1332 28.7278 11.4298 28.6641 11.7147C28.5904 12.0131 28.4185 12.2741 28.179 12.4512C28.179 12.4512 28.4092 12.8542 28.4215 12.8845C28.5301 13.1091 28.5984 13.3529 28.623 13.6037C28.6466 13.8971 28.5865 14.1913 28.4503 14.4485C28.363 14.609 28.2536 14.755 28.1256 14.8817C28.0483 14.9529 27.9674 15.0194 27.883 15.081C27.8459 15.1141 27.8002 15.1348 27.7518 15.1402C27.7034 15.1456 27.6546 15.1355 27.6117 15.1113C27.6117 15.1113 27.6117 15.1113 27.6117 15.0853C27.6117 15.0593 27.6117 15.0853 27.6446 15.0593C27.6775 15.0333 27.7474 14.938 27.7597 14.8817C27.7823 14.7987 27.7907 14.7122 27.7844 14.6261C27.7765 14.4113 27.698 14.2061 27.5624 14.0456C27.3717 13.8369 27.1134 13.7116 26.8389 13.6946C26.7787 13.6904 26.7183 13.6904 26.658 13.6946C26.2469 13.6962 25.8407 13.7892 25.4659 13.9676H25.4248C24.774 14.1772 24.1632 14.5057 23.6202 14.938C23.0777 15.4036 22.6468 15.9973 22.3624 16.671C21.7836 17.8634 21.6543 19.2424 22.0006 20.5311C22.0079 19.6975 22.1199 18.8686 22.3336 18.066C22.535 17.55 22.8491 17.0914 23.2503 16.7273C23.099 16.9807 22.9814 17.2547 22.9009 17.5418C22.7995 18.0576 22.7995 18.5899 22.9009 19.1058C23.0749 19.8422 23.4425 20.5119 23.9614 21.038C25.4372 22.4547 28.3722 22.3897 28.3722 22.3897H30.0165L29.9959 2.66008ZM32.968 12.2476H32.9433C32.1212 11.7667 32.1212 10.9089 32.1212 10.0814V9.79983L32.0718 6.87115C32.0718 6.13464 32.0472 5.37214 32.0431 4.61831V2.67741C32.043 2.5919 32.0613 2.50748 32.0965 2.43046L32.1212 2.36114C32.1413 2.30748 32.1497 2.24974 32.1458 2.19218C32.1458 2.14019 32.1458 2.07088 31.9855 2.00589H31.7759C31.6361 2.07088 31.6032 2.14019 31.6032 2.19218C31.5993 2.24974 31.6078 2.30748 31.6279 2.36114L31.6525 2.43046C31.6878 2.50748 31.706 2.5919 31.706 2.67741V4.61831C31.706 5.37214 31.706 6.13464 31.6772 6.87548L31.5703 10.415C31.5696 10.6365 31.5806 10.8577 31.6032 11.0779C31.6217 11.3015 31.6575 11.5232 31.7101 11.7407C31.7358 11.8541 31.7688 11.9656 31.8088 12.0743C31.8386 12.1481 31.8744 12.2191 31.9156 12.2866C31.8687 12.3633 31.8288 12.4446 31.7964 12.5292C31.7513 12.6476 31.7143 12.7692 31.6854 12.8931C31.6301 13.1293 31.593 13.3698 31.5744 13.6123C31.5622 13.8345 31.5622 14.0573 31.5744 14.2795V15.0507C31.5744 15.6962 31.6032 16.3504 31.6197 16.9872C31.6197 17.2775 31.6197 17.5721 31.6197 17.8537L31.6731 18.8328C31.6731 19.435 31.7019 20.0589 31.706 20.6698C31.706 21.0727 31.706 21.2893 31.706 21.6402V22.1688C31.7112 22.2868 31.6886 22.4044 31.6402 22.511V22.563C31.5934 22.6596 31.5615 22.7634 31.5457 22.8706C31.5457 22.9832 31.5046 23.1175 31.7306 23.2432H31.9814C32.2075 23.1132 32.2116 22.9789 32.1952 22.8663C32.1793 22.7591 32.1474 22.6553 32.1006 22.5587V22.5067C32.0517 22.4003 32.0291 22.2825 32.0348 22.1644V21.6489C32.0348 21.2936 32.0348 21.077 32.0348 20.6741C32.0348 20.0589 32.0595 19.4394 32.0718 18.8372C32.0718 18.5166 32.0718 18.1873 32.0965 17.8624C32.1212 17.5375 32.0965 17.2775 32.0965 16.9959C32.0965 16.359 32.1335 15.6962 32.1376 15.055V14.2925C32.1376 14.0759 32.1376 13.8593 32.1623 13.6686C32.2118 13.3773 32.3182 13.1 32.4747 12.8542V12.8195C32.583 12.5964 32.7445 12.4068 32.9433 12.2693L32.968 12.2476ZM37.7076 12.3256C37.2163 11.9501 36.625 11.7478 36.0181 11.7478C35.4112 11.7478 34.8199 11.9501 34.3286 12.3256C34.8106 12.724 35.4055 12.9406 36.0181 12.9406C36.6307 12.9406 37.2256 12.724 37.7076 12.3256Z" fill="url(#paint0_linear_5116_3550)"/>
<defs>
<linearGradient id="paint0_linear_5116_3550" x1="0.000602874" y1="21.9942" x2="40.7932" y2="-5.66432" gradientUnits="userSpaceOnUse">
<stop stop-color="#84604C"/>
<stop offset="0.182292" stop-color="#C1A16F"/>
<stop offset="0.458333" stop-color="#E6DCBF"/>
<stop offset="0.8125" stop-color="#CEAD7D"/>
<stop offset="0.989583" stop-color="#AD9176"/>
</linearGradient>
</defs>
</svg>
