<svg width="241" height="148" viewBox="0 0 241 148" fill="none" xmlns="http://www.w3.org/2000/svg">
<path d="M20.5731 73.1984C22.0543 72.8036 23.5775 72.6054 25.1064 72.6085C26.6452 72.6029 28.1778 72.8099 29.6643 73.2241C28.2153 73.7521 26.6909 74.0209 25.1557 74.0191C23.5954 74.0074 22.0475 73.7302 20.5731 73.1984V73.1984ZM133.584 72.0956C130.31 73.2565 127.383 75.2867 125.093 77.9854C122.803 80.6842 121.229 83.9583 120.527 87.4842C119.815 83.9584 118.235 80.6859 115.941 77.988C113.648 75.2901 110.719 73.2595 107.444 72.0956C108.085 72.3264 110.253 70.8645 110.795 70.531C111.92 69.8383 112.977 69.0307 113.948 68.1202C115.857 66.2885 117.412 64.0949 118.531 61.657C119.48 59.6811 120.152 57.5736 120.527 55.3989C120.893 57.5723 121.557 59.6797 122.498 61.657C123.628 64.0647 125.192 66.224 127.105 68.0176C128.067 68.9405 129.124 69.749 130.258 70.4285C130.702 70.8645 132.944 72.3264 133.584 72.0956ZM124.715 71.7108C124.518 71.7108 123.828 71.3005 123.656 71.1979C123.295 70.9771 122.957 70.7193 122.645 70.4285C122.022 69.852 121.511 69.1552 121.143 68.3767C120.838 67.7383 120.631 67.0548 120.527 66.3505C120.462 66.7078 120.372 67.0593 120.256 67.402C120.158 67.7369 120.035 68.0628 119.886 68.3767C119.706 68.764 119.491 69.1332 119.245 69.4795C118.992 69.8197 118.712 70.1371 118.408 70.4285C118.083 70.7136 117.737 70.9709 117.373 71.1979C117.201 71.1979 116.511 71.7878 116.314 71.7108C117.372 72.0855 118.317 72.7419 119.056 73.6147C119.796 74.4876 120.302 75.5466 120.527 76.6865C120.746 75.5485 121.249 74.4903 121.983 73.6173C122.718 72.7443 123.66 72.087 124.715 71.7108V71.7108ZM211.364 73.2241C212.814 73.7502 214.338 74.019 215.873 74.0191C217.433 74.0074 218.981 73.7302 220.455 73.1984C218.982 72.8052 217.467 72.607 215.947 72.6085C214.4 72.6012 212.859 72.8082 211.364 73.2241V73.2241ZM237.406 76.4557C236.719 76.4728 236.04 76.2929 235.445 75.9355C234.85 75.5781 234.36 75.0571 234.031 74.4295C230.039 76.9943 225.087 81.7391 217.795 81.9186C218.875 82.8121 219.671 84.0257 220.075 85.3994C220.48 86.7731 220.475 88.2422 220.061 89.6129C219.606 90.8397 218.88 91.9379 217.942 92.8189C217.389 93.3825 216.72 93.809 215.987 94.0666C215.253 94.3241 214.473 94.4061 213.705 94.3064C213.705 94.3064 214 94.0756 214.05 94.0243L214.271 93.6909C214.466 93.4335 214.64 93.1589 214.789 92.8702C215.094 92.3053 215.263 91.6715 215.282 91.0235C215.282 85.894 206.929 81.7391 203.801 77.5072C202.773 79.9425 202.164 82.5469 202.002 85.2015V121.108V134.419L216.267 147.243V147.884H167.461C155.142 147.884 134.644 150.449 120.65 131.419C106.508 150.398 86.1576 147.884 73.6911 147.884H24.7615V147.243L39.0018 134.419V130.624C39.0018 129.88 39.0018 129.11 39.0018 128.264V121.39V85.4836C38.8483 82.8277 38.2392 80.2218 37.2033 77.7893C34.0744 82.0212 25.747 86.3044 25.747 91.3056C25.7565 91.9516 25.9172 92.5855 26.2151 93.1523C26.3643 93.441 26.5374 93.7156 26.7325 93.973L26.9542 94.3064C26.9542 94.3064 27.2252 94.6142 27.2991 94.5885C26.5308 94.6882 25.7508 94.6062 25.0171 94.3487C24.2834 94.0911 23.615 93.6647 23.0615 93.101C22.1293 92.21 21.4119 91.1029 20.9673 89.8694C20.5604 88.4981 20.5589 87.0312 20.9631 85.6591C21.3673 84.287 22.1585 83.0731 23.234 82.1751C15.8428 81.9956 10.9153 77.1994 6.99801 74.686C6.67222 75.3116 6.18717 75.8316 5.59608 76.189C5.005 76.5465 4.33075 76.7275 3.64734 76.7121C3.10028 76.7449 2.55359 76.6415 2.05256 76.4105C1.55153 76.1795 1.11057 75.8276 0.766212 75.3839C0.421851 74.9402 0.184 74.4175 0.0723535 73.859C-0.0392928 73.3005 -0.0215189 72.7224 0.124204 72.1725C0.313031 71.5221 0.670533 70.9386 1.15737 70.4861C1.64421 70.0336 2.24152 69.7297 2.88358 69.6077C3.68769 69.4099 4.53186 69.4907 5.28782 69.8379C6.04378 70.1851 6.67021 70.7797 7.07191 71.5313C11.0878 68.9665 16.0399 64.1961 23.3325 64.0422C22.2691 63.1823 21.4697 62.0183 21.0321 60.6927C20.5945 59.3671 20.5378 57.9374 20.8688 56.5787C21.2369 55.326 21.9475 54.212 22.9137 53.3728C23.4708 52.9088 24.1181 52.5762 24.8108 52.3982C25.4087 52.2594 26.0223 52.2076 26.6339 52.2443C22.2731 58.0919 33.557 63.7088 37.2279 68.351C38.3329 65.941 38.9612 63.3244 39.0757 60.6567V13.465L24.8108 0.641191V0H67.7289C87.2416 0.589896 107.149 2.07746 117.25 20.1591C118.74 22.8136 119.844 25.683 120.527 28.6741C121.201 25.6841 122.297 22.8146 123.779 20.1591C133.929 2.07746 153.787 0.589896 173.3 0H216.267V0.641191L202.002 13.465V61.0927C202.15 63.6157 202.778 66.0829 203.85 68.351C207.496 63.7088 218.78 58.0919 214.444 52.2443C215.047 52.2073 215.653 52.2591 216.242 52.3982C216.937 52.5698 217.586 52.903 218.139 53.3728C219.113 54.2048 219.826 55.3214 220.184 56.5787C220.515 57.9374 220.459 59.3671 220.021 60.6927C219.583 62.0183 218.784 63.1823 217.721 64.0422C225.112 64.1961 230.039 69.0178 233.981 71.5313C234.386 70.7826 235.013 70.1905 235.768 69.8438C236.523 69.497 237.366 69.4142 238.17 69.6077C238.814 69.7241 239.414 70.0261 239.902 70.4794C240.389 70.9327 240.745 71.5193 240.929 72.1725C241.035 72.7056 241.022 73.2568 240.892 73.784C240.761 74.3112 240.517 74.8003 240.177 75.2138C239.837 75.6272 239.41 75.9542 238.93 76.1694C238.449 76.3847 237.928 76.4826 237.406 76.4557ZM35.3801 72.9676C32.4358 70.7444 28.8916 69.5472 25.2542 69.5472C21.6169 69.5472 18.0727 70.7444 15.1283 72.9676C18.009 75.3011 21.5549 76.568 25.205 76.568C28.855 76.568 32.4009 75.3011 35.2816 72.9676H35.3801ZM52.2567 135.42C52.1618 134.785 51.9705 134.171 51.69 133.599V133.291C51.4107 132.656 51.2758 131.963 51.2958 131.265V128.136C51.2958 126.058 51.2958 124.776 51.2958 122.391C51.2958 118.774 51.2958 115.081 51.5176 111.516C51.5176 109.618 51.5176 107.669 51.6407 105.771L51.7886 100.641C51.7886 96.8968 51.9857 92.9471 52.0349 89.1769L51.8625 84.7399C51.9393 83.3903 51.9393 82.0371 51.8625 80.6875C51.7514 79.252 51.5289 77.8282 51.1973 76.43C51.0245 75.6965 50.8022 74.9766 50.5321 74.2756C50.3381 73.7744 50.0989 73.2935 49.8176 72.8393C50.0647 72.44 50.279 72.0195 50.4582 71.5826C50.7046 70.939 50.9103 70.2793 51.0741 69.6077C51.3657 68.3148 51.5796 67.0043 51.7147 65.6836C51.838 64.3455 51.8874 63.001 51.8625 61.657L51.5176 40.4976C51.5176 36.1119 51.3697 31.5979 51.3451 27.1352V15.6451C51.3568 15.1404 51.4657 14.6432 51.6654 14.1832C51.7258 14.051 51.7753 13.9137 51.8132 13.7728C51.8717 13.495 51.8883 13.2095 51.8625 12.9264C51.8625 12.6186 51.6407 12.2083 50.8031 11.8236H49.5712C48.7089 12.2083 48.5857 12.6186 48.5857 12.9264C48.5625 13.2672 48.613 13.609 48.7335 13.9267L48.8814 14.337C49.0883 14.7957 49.2056 15.2927 49.2263 15.799V27.2891C49.2263 31.7518 49.2263 36.2658 49.0538 40.6259L48.7828 57.9637C48.7828 58.3484 48.7828 58.7331 48.7828 59.1179V59.6308C48.7828 64.5551 48.635 69.6334 43.7322 72.4546H43.5597H43.7075C44.9036 73.2708 45.879 74.3922 46.5408 75.7119C46.5453 75.7802 46.5453 75.8487 46.5408 75.9171C47.4786 77.3722 48.1161 79.0141 48.4133 80.7388C48.5255 81.9663 48.5749 83.1991 48.5611 84.4321V88.9461C48.5611 92.7676 48.7089 96.6404 48.8075 100.436C48.8075 102.129 48.8075 103.873 48.8075 105.566C48.8075 107.259 48.8075 109.439 48.9553 111.336C48.9553 114.902 49.1524 118.569 49.177 122.211C49.177 124.596 49.177 125.879 49.177 127.982V131.085C49.2019 131.786 49.058 132.483 48.7582 133.111C48.7679 133.214 48.7679 133.317 48.7582 133.419C48.4886 133.996 48.2979 134.609 48.1915 135.24C48.1915 135.907 48.1915 136.702 49.4727 137.471H50.9755C52.4045 136.882 52.2567 136.035 52.1581 135.42H52.2567ZM107.272 98.6152C105.567 94.6268 102.985 91.1123 99.7327 88.3562C96.4842 85.8022 92.8323 83.8579 88.9416 82.6111H88.6952C86.4152 81.5171 83.9377 80.9401 81.4272 80.9184C81.0745 80.8928 80.7205 80.8928 80.3678 80.9184C78.7161 81.0199 77.1605 81.7609 76.007 82.9958C75.2045 83.9528 74.7358 85.1638 74.6766 86.4326C74.6388 86.9422 74.6888 87.4546 74.8244 87.9458C74.8244 88.2792 75.0954 88.8948 75.5389 88.9974C75.9824 89.1 75.7114 88.9974 75.736 89.1513C75.7606 89.3051 75.736 89.1512 75.736 89.3051C75.4789 89.4485 75.1864 89.508 74.8964 89.476C74.6064 89.4439 74.3324 89.3219 74.1099 89.1256C73.6079 88.7673 73.1305 88.3731 72.681 87.9458C71.899 87.2036 71.2339 86.3382 70.71 85.381C69.8893 83.8609 69.5367 82.1152 69.6999 80.3798C69.839 78.8969 70.2399 77.4536 70.8825 76.1222C70.8825 75.9684 72.2868 73.5575 72.3361 73.5575C70.8921 72.5649 69.8284 71.0764 69.3303 69.3513C68.9364 67.666 68.9364 65.907 69.3303 64.2217C69.6105 62.7084 70.1802 61.2692 71.0056 59.9899C71.2784 59.4824 71.6748 59.0588 72.1549 58.7616C72.635 58.4644 73.1819 58.3042 73.7404 58.2971V58.2971C73.7404 58.2971 73.7404 58.2971 73.7404 58.451C73.4018 58.928 73.1875 59.4881 73.1184 60.0769C73.0493 60.6657 73.1278 61.263 73.3462 61.8108C73.5855 62.4742 73.9542 63.0788 74.4291 63.5864C74.9041 64.0941 75.4749 64.4938 76.1056 64.7603C77.2517 65.2232 78.4734 65.4497 79.7026 65.4272C82.2038 65.3549 84.6867 64.9586 87.0938 64.2474C91.5808 63.0148 95.6767 60.5733 98.969 57.1686C103.493 53.1795 106.671 47.7864 108.035 41.78C109.002 36.5161 108.783 31.0905 107.395 25.9298C107.662 29.2965 107.505 32.6852 106.927 36.0093C106.488 40.9868 104.198 45.5887 100.546 48.8331C101.683 46.7737 102.372 44.4801 102.566 42.1135C102.963 37.898 102.184 33.6528 100.322 29.8864C98.4607 26.1201 95.5958 22.9921 92.0705 20.8772C84.3837 15.7477 66.8173 15.7477 66.8173 15.7477H61.2493V132.47H71.1042C71.1042 132.47 88.6952 132.855 97.54 124.468C100.671 121.331 102.891 117.34 103.946 112.952C104.552 109.898 104.552 106.747 103.946 103.693C103.474 101.99 102.768 100.366 101.852 98.8717C104.256 101.027 106.138 103.742 107.346 106.797C108.615 111.551 109.294 116.456 109.366 121.39C111.447 113.795 110.699 105.662 107.272 98.6152V98.6152ZM143.02 72.5316C141.912 72.9163 138.093 70.3515 137.206 69.7873C135.227 68.5943 133.377 67.1842 131.687 65.5811C128.35 62.4441 125.616 58.6754 123.631 54.4756C122.242 51.5215 121.2 48.4043 120.527 45.1912C119.833 48.4017 118.783 51.5174 117.398 54.4756C115.412 58.6754 112.678 62.4441 109.341 65.5811C107.651 67.1842 105.801 68.5943 103.822 69.7873C102.886 70.3515 99.1168 72.9163 98.0081 72.5316C103.504 74.4844 108.444 77.8377 112.377 82.286C116.31 86.7342 119.112 92.1361 120.527 97.9997C121.931 92.135 124.726 86.7307 128.656 82.2813C132.585 77.832 137.524 74.4798 143.02 72.5316V72.5316ZM179.779 15.7477H174.211C174.211 15.7477 156.645 15.7477 148.983 20.8772C145.453 22.9873 142.585 26.1143 140.723 29.882C138.861 33.6496 138.084 37.8972 138.487 42.1135C138.7 44.4832 139.406 46.7763 140.557 48.8331C136.904 45.5887 134.614 40.9868 134.176 36.0093C133.615 32.7697 133.441 29.4703 133.658 26.1863C132.27 31.347 132.051 36.7726 133.018 42.0365C134.383 48.0428 137.56 53.4359 142.084 57.4251C145.39 60.7109 149.455 63.0521 153.885 64.2217C156.293 64.9311 158.776 65.3274 161.277 65.4015C162.506 65.4287 163.729 65.202 164.874 64.7347C165.499 64.4825 166.069 64.0999 166.548 63.6104C167.027 63.1208 167.404 62.5347 167.658 61.8878C167.876 61.3399 167.955 60.7426 167.885 60.1539C167.816 59.5651 167.602 59.005 167.263 58.5279C167.263 58.5279 167.263 58.528 167.263 58.3741C167.823 58.3785 168.37 58.5377 168.851 58.8351C169.331 59.1325 169.727 59.5576 169.998 60.0668C170.857 61.3136 171.468 62.7261 171.797 64.2217C172.179 65.9085 172.179 67.6645 171.797 69.3513C171.355 71.1176 170.325 72.6629 168.89 73.7114C168.89 73.7114 170.269 76.0966 170.343 76.2761C170.994 77.6059 171.403 79.0493 171.55 80.5336C171.692 82.2708 171.332 84.0125 170.516 85.5349C169.992 86.4855 169.337 87.3499 168.569 88.0997C168.106 88.521 167.621 88.9149 167.116 89.2795C166.893 89.4757 166.619 89.5978 166.329 89.6298C166.039 89.6619 165.747 89.6023 165.49 89.459V89.459C165.49 89.459 165.49 89.459 165.49 89.3051C165.49 89.1512 165.49 89.3051 165.687 89.1513C165.884 88.9974 166.303 88.4331 166.377 88.0997C166.512 87.6085 166.562 87.096 166.524 86.5865C166.477 85.315 166.007 84.1001 165.194 83.1497C164.051 81.9144 162.503 81.1726 160.858 81.0722C160.497 81.0472 160.135 81.0472 159.774 81.0722C157.309 81.0817 154.875 81.6323 152.629 82.688H152.383C148.482 83.9292 144.821 85.8738 141.567 88.4331C138.315 91.1893 135.732 94.7038 134.028 98.6922C130.559 105.751 129.784 113.915 131.86 121.544C131.904 116.609 132.575 111.702 133.855 106.951C135.063 103.896 136.945 101.181 139.349 99.0256C138.443 100.526 137.738 102.148 137.255 103.847C136.648 106.901 136.648 110.052 137.255 113.106C138.298 117.466 140.501 121.43 143.612 124.545C152.456 132.932 170.047 132.547 170.047 132.547H179.902L179.779 15.7477ZM197.592 72.5059H197.444C192.517 69.659 192.517 64.5808 192.517 59.6821V58.015L192.221 40.6772C192.221 36.3171 192.073 31.8031 192.049 27.3404V15.8503C192.048 15.3441 192.158 14.8443 192.369 14.3883L192.517 13.978C192.637 13.6603 192.688 13.3185 192.665 12.9777C192.665 12.6699 192.665 12.2596 191.704 11.8749H190.447C189.609 12.2596 189.412 12.6699 189.412 12.9777C189.389 13.3185 189.44 13.6603 189.56 13.978L189.708 14.3883C189.919 14.8443 190.029 15.3441 190.028 15.8503V27.3404C190.028 31.8031 190.028 36.3171 189.856 40.7028L189.215 61.657C189.211 62.9678 189.277 64.2778 189.412 65.5811C189.523 66.905 189.738 68.2174 190.053 69.5051C190.207 70.1765 190.405 70.8363 190.644 71.48C190.823 71.917 191.038 72.3374 191.285 72.7367C191.004 73.1909 190.764 73.6718 190.57 74.173C190.3 74.874 190.078 75.5939 189.905 76.3274C189.573 77.7256 189.351 79.1494 189.24 80.5849C189.167 81.9004 189.167 83.2192 189.24 84.5347V89.0999C189.24 92.9214 189.412 96.7942 189.511 100.564C189.511 102.283 189.511 104.027 189.511 105.694L189.831 111.49C189.831 115.055 190.004 118.749 190.028 122.365C190.028 124.75 190.028 126.033 190.028 128.11V131.239C190.06 131.938 189.924 132.634 189.634 133.265V133.573C189.354 134.145 189.162 134.76 189.067 135.394C189.067 136.061 188.821 136.856 190.176 137.6H191.679C193.034 136.83 193.059 136.035 192.96 135.368C192.865 134.734 192.674 134.119 192.394 133.547V133.24C192.1 132.61 191.965 131.913 191.999 131.213V128.161C191.999 126.058 191.999 124.776 191.999 122.391C191.999 118.749 192.147 115.081 192.221 111.516C192.221 109.618 192.221 107.669 192.369 105.745C192.517 103.822 192.369 102.283 192.369 100.616C192.369 96.8456 192.591 92.9215 192.615 89.1256V84.6116C192.615 83.3292 192.615 82.0469 192.763 80.9184C193.06 79.1936 193.698 77.5518 194.635 76.0966V75.8914C195.285 74.5708 196.253 73.4484 197.444 72.6342L197.592 72.5059ZM225.999 72.9676C223.054 70.7444 219.51 69.5472 215.873 69.5472C212.235 69.5472 208.691 70.7444 205.747 72.9676C208.636 75.3263 212.201 76.6081 215.873 76.6081C219.544 76.6081 223.11 75.3263 225.999 72.9676V72.9676Z" fill="black"/>
</svg>
