<svg width="237" height="144" viewBox="0 0 237 144" fill="none" xmlns="http://www.w3.org/2000/svg">
<path d="M216.768 71.2201C215.312 70.8359 213.814 70.6431 212.31 70.6461C210.797 70.6407 209.29 70.8421 207.828 71.245C209.253 71.7588 210.752 72.0204 212.262 72.0186C213.796 72.0072 215.318 71.7374 216.768 71.2201ZM105.633 70.147C108.853 71.2766 111.731 73.2519 113.983 75.8777C116.235 78.5036 117.783 81.6891 118.474 85.1197C119.174 81.6893 120.728 78.5052 122.983 75.8802C125.239 73.2552 128.118 71.2795 131.339 70.147C130.709 70.3716 128.577 68.9492 128.044 68.6248C126.937 67.9508 125.898 67.165 124.943 66.2791C123.066 64.4969 121.537 62.3626 120.436 59.9906C119.503 58.0681 118.842 56.0176 118.474 53.9017C118.114 56.0163 117.461 58.0668 116.536 59.9906C115.424 62.3332 113.886 64.4342 112.005 66.1793C111.059 67.0772 110.019 67.8639 108.904 68.525C108.468 68.9492 106.263 70.3716 105.633 70.147ZM114.355 69.7727C114.549 69.7727 115.227 69.3734 115.397 69.2736C115.751 69.0588 116.084 68.808 116.39 68.525C117.003 67.9641 117.505 67.2862 117.868 66.5286C118.167 65.9075 118.372 65.2426 118.474 64.5572C118.537 64.9048 118.626 65.2469 118.74 65.5804C118.836 65.9061 118.958 66.2233 119.104 66.5286C119.281 66.9055 119.492 67.2647 119.734 67.6017C119.983 67.9326 120.258 68.2415 120.558 68.525C120.877 68.8024 121.217 69.0528 121.575 69.2736C121.745 69.2736 122.423 69.8476 122.617 69.7727C121.576 70.1372 120.646 70.7759 119.92 71.6251C119.193 72.4744 118.694 73.5048 118.474 74.6139C118.258 73.5066 117.764 72.477 117.041 71.6276C116.319 70.7782 115.392 70.1387 114.355 69.7727ZM29.1439 71.245C27.7185 71.7569 26.2197 72.0184 24.7101 72.0186C23.1758 72.0072 21.6535 71.7374 20.2036 71.2201C21.6523 70.8375 23.142 70.6447 24.6374 70.6461C26.1587 70.639 27.6742 70.8405 29.1439 71.245ZM3.53455 74.3893C4.21017 74.406 4.87724 74.2309 5.46271 73.8832C6.04817 73.5355 6.52943 73.0286 6.85382 72.4179C10.7788 74.9133 15.6487 79.5299 22.8203 79.7046C21.7574 80.5739 20.9753 81.7548 20.5773 83.0913C20.1794 84.4279 20.1843 85.8573 20.5913 87.1909C21.0388 88.3846 21.7525 89.4531 22.6749 90.3102C23.2192 90.8587 23.8766 91.2736 24.5981 91.5242C25.3196 91.7748 26.0866 91.8546 26.8422 91.7576C26.8422 91.7576 26.5515 91.533 26.503 91.4831L26.285 91.1587C26.0932 90.9082 25.9229 90.641 25.7762 90.3601C25.4757 89.8105 25.3094 89.1939 25.2916 88.5634C25.2916 83.5725 33.505 79.5299 36.582 75.4124C37.5929 77.7819 38.1916 80.3159 38.3507 82.8988V117.835V130.786L24.3225 143.264V143.888H72.3188C84.433 143.888 104.591 146.383 118.353 127.867C132.26 146.333 152.272 143.888 164.532 143.888H212.649V143.264L198.646 130.786V127.093C198.646 126.369 198.646 125.621 198.646 124.797V118.11V83.1733C198.796 80.5891 199.395 78.0536 200.414 75.6869C203.491 79.8044 211.68 83.9718 211.68 88.8379C211.671 89.4665 211.513 90.0832 211.22 90.6347C211.073 90.9156 210.903 91.1827 210.711 91.4332L210.493 91.7576C210.493 91.7576 210.227 92.057 210.154 92.0321C210.91 92.1291 211.677 92.0493 212.398 91.7987C213.12 91.5481 213.777 91.1332 214.321 90.5847C215.238 89.7178 215.943 88.6406 216.381 87.4405C216.781 86.1063 216.782 84.679 216.385 83.344C215.987 82.0089 215.209 80.8279 214.152 79.9541C221.42 79.7795 226.266 75.113 230.118 72.6674C230.439 73.2761 230.916 73.7821 231.497 74.1299C232.078 74.4776 232.741 74.6538 233.413 74.6388C233.951 74.6707 234.489 74.5701 234.982 74.3454C235.474 74.1206 235.908 73.7782 236.247 73.3465C236.585 72.9148 236.819 72.4062 236.929 71.8628C237.039 71.3194 237.021 70.7569 236.878 70.2219C236.692 69.5891 236.341 69.0213 235.862 68.5811C235.383 68.1408 234.796 67.8451 234.164 67.7264C233.374 67.5339 232.543 67.6125 231.8 67.9504C231.057 68.2882 230.44 68.8667 230.045 69.598C226.096 67.1026 221.226 62.4611 214.055 62.3113C215.1 61.4747 215.887 60.3422 216.317 59.0524C216.747 57.7626 216.803 56.3715 216.478 55.0496C216.116 53.8307 215.417 52.7468 214.467 51.9303C213.919 51.4788 213.282 51.1552 212.601 50.982C212.013 50.847 211.41 50.7966 210.808 50.8323C215.097 56.5219 204 61.9869 200.39 66.5037C199.303 64.1588 198.685 61.613 198.573 59.0173V13.1011L212.601 0.623862V0H170.395C151.206 0.573953 131.63 2.02131 121.696 19.6142C120.231 22.197 119.145 24.9889 118.474 27.8991C117.811 24.9899 116.733 22.198 115.276 19.6142C105.294 2.02131 85.7656 0.573953 66.5767 0H24.3225V0.623862L38.3507 13.1011V59.4416C38.2051 61.8963 37.5874 64.2968 36.5336 66.5037C32.9478 61.9869 21.8512 56.5219 26.1154 50.8323C25.5219 50.7963 24.9265 50.8467 24.3467 50.982C23.6633 51.149 23.0255 51.4732 22.4811 51.9303C21.5234 52.7398 20.8229 53.8263 20.4702 55.0496C20.1446 56.3715 20.2004 57.7626 20.6308 59.0524C21.0611 60.3422 21.8473 61.4747 22.893 62.3113C15.6245 62.4611 10.7788 67.1525 6.90228 69.598C6.50427 68.8696 5.88786 68.2935 5.14534 67.9561C4.40282 67.6187 3.57416 67.5381 2.78345 67.7264C2.14992 67.8397 1.55988 68.1335 1.08025 68.5746C0.600616 69.0156 0.250595 69.5863 0.0698853 70.2219C-0.0343323 70.7406 -0.0218658 71.2769 0.106369 71.7898C0.234604 72.3028 0.475189 72.7786 0.809662 73.1809C1.14413 73.5833 1.56363 73.9013 2.03596 74.1108C2.50829 74.3203 3.02092 74.4155 3.53455 74.3893ZM202.207 70.9955C205.103 68.8324 208.588 67.6675 212.165 67.6675C215.742 67.6675 219.227 68.8324 222.123 70.9955C219.29 73.2659 215.803 74.4986 212.213 74.4986C208.624 74.4986 205.137 73.2659 202.304 70.9955H202.207ZM185.611 131.76C185.704 131.142 185.892 130.544 186.168 129.988V129.688C186.443 129.071 186.575 128.396 186.556 127.717V124.673C186.556 122.651 186.556 121.404 186.556 119.083C186.556 115.564 186.556 111.971 186.338 108.502C186.338 106.655 186.338 104.759 186.216 102.912L186.071 97.9213C186.071 94.278 185.877 90.435 185.829 86.7667L185.998 82.4496C185.923 81.1365 185.923 79.8199 185.998 78.5068C186.108 77.11 186.326 75.7247 186.652 74.3643C186.822 73.6506 187.041 72.9502 187.307 72.2682C187.497 71.7805 187.733 71.3126 188.009 70.8707C187.766 70.4821 187.556 70.0731 187.379 69.6479C187.137 69.0217 186.935 68.3798 186.774 67.7264C186.487 66.4685 186.276 65.1933 186.144 63.9084C186.022 62.6064 185.974 61.2983 185.998 59.9906L186.338 39.4031C186.338 35.1359 186.483 30.7439 186.507 26.4018V15.2222C186.496 14.7312 186.389 14.2475 186.192 13.7998C186.133 13.6713 186.084 13.5377 186.047 13.4006C185.989 13.1303 185.973 12.8525 185.998 12.5771C185.998 12.2776 186.216 11.8783 187.04 11.504H188.252C189.1 11.8783 189.221 12.2776 189.221 12.5771C189.244 12.9086 189.194 13.2412 189.075 13.5503L188.93 13.9496C188.726 14.3958 188.611 14.8793 188.591 15.372V26.5516C188.591 30.8936 188.591 35.2856 188.76 39.5279L189.027 56.3971C189.027 56.7714 189.027 57.1458 189.027 57.5201V58.0192C189.027 62.8104 189.172 67.7514 193.994 70.4964H194.163H194.018C192.842 71.2905 191.882 72.3816 191.232 73.6656C191.227 73.7321 191.227 73.7988 191.232 73.8652C190.309 75.2811 189.682 76.8786 189.39 78.5567C189.28 79.751 189.231 80.9505 189.245 82.1501V86.5421C189.245 90.2603 189.1 94.0285 189.003 97.7217C189.003 99.3687 189.003 101.066 189.003 102.713C189.003 104.36 189.003 106.481 188.857 108.327C188.857 111.796 188.663 115.365 188.639 118.908C188.639 121.229 188.639 122.477 188.639 124.523V127.542C188.615 128.225 188.756 128.902 189.051 129.514C189.042 129.613 189.042 129.714 189.051 129.813C189.316 130.374 189.504 130.97 189.608 131.585C189.608 132.234 189.608 133.007 188.348 133.756H186.871C185.465 133.182 185.611 132.359 185.708 131.76H185.611ZM131.509 95.95C133.185 92.0694 135.725 88.6498 138.923 85.9682C142.117 83.4832 145.708 81.5915 149.535 80.3784H149.777C152.019 79.3139 154.455 78.7525 156.924 78.7314C157.271 78.7065 157.619 78.7065 157.966 78.7314C159.59 78.8301 161.12 79.5512 162.255 80.7527C163.044 81.6838 163.505 82.862 163.563 84.0966C163.6 84.5924 163.551 85.091 163.417 85.5689C163.417 85.8933 163.151 86.4922 162.715 86.592C162.279 86.6919 162.545 86.592 162.521 86.7418C162.497 86.8915 162.521 86.7418 162.521 86.8915C162.774 87.0309 163.062 87.0888 163.347 87.0577C163.632 87.0265 163.901 86.9078 164.12 86.7168C164.614 86.3682 165.083 85.9846 165.525 85.5689C166.294 84.8468 166.948 84.0047 167.464 83.0734C168.271 81.5944 168.617 79.8959 168.457 78.2073C168.32 76.7646 167.926 75.3602 167.294 74.0649C167.294 73.9152 165.913 71.5694 165.865 71.5694C167.285 70.6037 168.331 69.1554 168.82 67.4769C169.208 65.8372 169.208 64.1257 168.82 62.486C168.545 61.0136 167.985 59.6133 167.173 58.3685C166.905 57.8748 166.515 57.4626 166.043 57.1735C165.571 56.8843 165.033 56.7284 164.484 56.7215C164.484 56.7215 164.484 56.7215 164.484 56.8713C164.817 57.3354 165.027 57.8804 165.095 58.4532C165.163 59.026 165.086 59.6073 164.871 60.1403C164.636 60.7857 164.273 61.374 163.806 61.8679C163.339 62.3618 162.778 62.7507 162.158 63.01C161.03 63.4604 159.829 63.6807 158.62 63.6589C156.161 63.5886 153.719 63.203 151.352 62.511C146.939 61.3117 142.911 58.9362 139.674 55.6235C135.225 51.7422 132.1 46.4948 130.758 40.6508C129.807 35.5292 130.022 30.2502 131.388 25.229C131.125 28.5047 131.279 31.8018 131.848 35.0361C132.279 39.879 134.531 44.3566 138.123 47.5133C137.005 45.5096 136.327 43.2779 136.136 40.9753C135.746 36.8737 136.512 32.7433 138.343 29.0787C140.173 25.4141 142.991 22.3707 146.458 20.3129C154.017 15.322 171.292 15.322 171.292 15.322H176.767V128.89H167.076C167.076 128.89 149.777 129.264 141.079 121.104C138 118.052 135.817 114.169 134.78 109.9C134.183 106.928 134.183 103.862 134.78 100.891C135.244 99.2334 135.937 97.6534 136.839 96.1995C134.474 98.2965 132.623 100.938 131.436 103.91C130.187 108.537 129.52 113.308 129.449 118.11C127.403 110.719 128.138 102.806 131.509 95.95ZM96.3534 70.5713C97.4436 70.9456 101.199 68.4501 102.071 67.9011C104.017 66.7404 105.836 65.3684 107.498 63.8086C110.78 60.7565 113.469 57.0896 115.421 53.0033C116.786 50.129 117.811 47.0961 118.474 43.9698C119.156 47.0936 120.189 50.1251 121.551 53.0033C123.503 57.0896 126.192 60.7565 129.474 63.8086C131.136 65.3684 132.955 66.7404 134.901 67.9011C135.821 68.4501 139.528 70.9456 140.619 70.5713C135.214 72.4713 130.356 75.734 126.488 80.062C122.62 84.3901 119.865 89.646 118.474 95.351C117.093 89.6449 114.344 84.3866 110.48 80.0575C106.615 75.7284 101.758 72.4668 96.3534 70.5713ZM60.2047 15.322H65.6803C65.6803 15.322 82.9551 15.322 90.4901 20.3129C93.961 22.366 96.7819 25.4085 98.613 29.0744C100.444 32.7402 101.208 36.873 100.811 40.9753C100.602 43.281 99.9075 45.512 98.7762 47.5133C102.368 44.3566 104.62 39.879 105.051 35.0361C105.603 31.884 105.774 28.6738 105.56 25.4785C106.925 30.4998 107.141 35.7788 106.19 40.9004C104.848 46.7444 101.723 51.9917 97.274 55.8731C94.0231 59.0701 90.0255 61.348 85.6687 62.486C83.3011 63.1762 80.8597 63.5618 78.4001 63.6339C77.191 63.6603 75.9888 63.4398 74.8628 62.9851C74.2474 62.7397 73.6871 62.3675 73.2163 61.8912C72.7456 61.4149 72.3742 60.8445 72.125 60.2151C71.9103 59.6821 71.8331 59.1009 71.901 58.5281C71.9689 57.9552 72.1797 57.4102 72.5127 56.9461C72.5127 56.9461 72.5127 56.9461 72.5127 56.7964C71.9629 56.8007 71.4241 56.9556 70.9516 57.245C70.479 57.5344 70.0896 57.948 69.8233 58.4434C68.9788 59.6564 68.3775 61.0308 68.0547 62.486C67.6792 64.1272 67.6792 65.8357 68.0547 67.4769C68.489 69.1955 69.5023 70.6991 70.9136 71.7192C70.9136 71.7192 69.5568 74.0399 69.4841 74.2146C68.8444 75.5085 68.4419 76.9128 68.2969 78.3571C68.1576 80.0473 68.512 81.7419 69.3145 83.2232C69.8289 84.1481 70.474 84.9891 71.2286 85.7186C71.6838 86.1286 72.161 86.5118 72.6581 86.8665C72.8768 87.0575 73.1463 87.1763 73.4315 87.2074C73.7166 87.2386 74.0043 87.1806 74.2571 87.0412C74.2571 87.0412 74.2571 87.0412 74.2571 86.8915C74.2571 86.7418 74.2571 86.8915 74.0633 86.7418C73.8695 86.592 73.4576 86.043 73.3849 85.7186C73.2515 85.2407 73.2023 84.7421 73.2395 84.2463C73.2861 83.0092 73.7486 81.8271 74.5479 80.9024C75.672 79.7005 77.1945 78.9788 78.812 78.8811C79.167 78.8567 79.5231 78.8567 79.8781 78.8811C82.3015 78.8903 84.6957 79.426 86.9043 80.4532H87.1466C90.9824 81.6608 94.5825 83.5528 97.7828 86.043C100.981 88.7247 103.521 92.1442 105.197 96.0248C108.608 102.893 109.37 110.836 107.329 118.259C107.286 113.458 106.626 108.683 105.366 104.06C104.179 101.088 102.328 98.4463 99.9634 96.3492C100.855 97.8086 101.548 99.3872 102.023 101.041C102.62 104.012 102.62 107.078 102.023 110.049C100.997 114.291 98.8306 118.149 95.7719 121.179C87.0739 129.339 69.7749 128.965 69.7749 128.965H60.0835L60.2047 15.322ZM42.6876 70.5463H42.8329C47.6786 67.7764 47.6786 62.8354 47.6786 58.0691V56.447L47.9693 39.5778C47.9693 35.3355 48.1147 30.9435 48.1389 26.6015V15.4219C48.1393 14.9293 48.0317 14.4431 47.824 13.9995L47.6786 13.6002C47.5601 13.2911 47.5104 12.9585 47.5332 12.627C47.5332 12.3275 47.5332 11.9282 48.4781 11.5539H49.7138C50.5376 11.9282 50.7314 12.3275 50.7314 12.627C50.7542 12.9585 50.7046 13.2911 50.586 13.6002L50.4406 13.9995C50.233 14.4431 50.1253 14.9293 50.1257 15.4219V26.6015C50.1257 30.9435 50.1257 35.3355 50.2953 39.6028L50.9252 59.9906C50.9294 61.266 50.8647 62.5406 50.7314 63.8086C50.6223 65.0968 50.4117 66.3736 50.1014 67.6266C49.9497 68.2798 49.7554 68.9218 49.52 69.5481C49.3438 69.9733 49.1331 70.3823 48.89 70.7709C49.1666 71.2128 49.4019 71.6807 49.5926 72.1683C49.8583 72.8503 50.0769 73.5508 50.2468 74.2645C50.573 75.6249 50.7917 77.0102 50.901 78.407C50.973 79.6869 50.973 80.97 50.901 82.2499V86.6918C50.901 90.4101 50.7314 94.1782 50.6345 97.8465C50.6345 99.5184 50.6345 101.215 50.6345 102.837L50.3195 108.477C50.3195 111.946 50.1499 115.539 50.1257 119.058C50.1257 121.379 50.1257 122.626 50.1257 124.648V127.692C50.0947 128.372 50.2279 129.049 50.5133 129.663V129.963C50.7891 130.519 50.9772 131.117 51.0706 131.735C51.0706 132.383 51.3129 133.157 49.9803 133.881H48.5024C47.1698 133.132 47.1456 132.359 47.2425 131.71C47.3358 131.092 47.5239 130.494 47.7997 129.938V129.639C48.0882 129.025 48.2215 128.347 48.1874 127.667V124.698C48.1874 122.651 48.1874 121.404 48.1874 119.083C48.1874 115.539 48.042 111.971 47.9693 108.502C47.9693 106.655 47.9693 104.759 47.824 102.887C47.6786 101.016 47.824 99.5184 47.824 97.8964C47.824 94.2281 47.6059 90.4101 47.5817 86.7168V82.3248C47.5817 81.0771 47.5817 79.8294 47.4363 78.7314C47.1441 77.0532 46.5171 75.4558 45.595 74.0399V73.8403C44.9563 72.5554 44.0045 71.4633 42.8329 70.6711L42.6876 70.5463ZM14.7523 70.9955C17.6478 68.8324 21.1331 67.6675 24.7101 67.6675C28.2871 67.6675 31.7725 68.8324 34.668 70.9955C31.8269 73.2904 28.3207 74.5376 24.7101 74.5376C21.0996 74.5376 17.5933 73.2904 14.7523 70.9955Z" fill="url(#paint0_linear_1318_1404)"/>
<defs>
<linearGradient id="paint0_linear_1318_1404" x1="236.996" y1="126.687" x2="0.0773703" y2="-37.6876" gradientUnits="userSpaceOnUse">
<stop stop-color="#84604C"/>
<stop offset="0.182292" stop-color="#C1A16F"/>
<stop offset="0.458333" stop-color="#E6DCBF"/>
<stop offset="0.8125" stop-color="#CEAD7D"/>
<stop offset="0.989583" stop-color="#AD9176"/>
</linearGradient>
</defs>
</svg>
