<svg width="69" height="69" viewBox="0 0 69 69" fill="none" xmlns="http://www.w3.org/2000/svg">
<path d="M34.2194 68.181C53.1182 68.181 68.4387 52.9182 68.4387 34.0905C68.4387 15.2628 53.1182 0 34.2194 0C15.3205 0 0 15.2628 0 34.0905C0 52.9182 15.3205 68.181 34.2194 68.181Z" fill="#EF8035"/>
<path d="M22.8261 39.5255C25.8391 39.5255 28.2816 37.0922 28.2816 34.0905C28.2816 31.0888 25.8391 28.6555 22.8261 28.6555C19.8131 28.6555 17.3706 31.0888 17.3706 34.0905C17.3706 37.0922 19.8131 39.5255 22.8261 39.5255Z" fill="black"/>
<path d="M45.6126 39.5255C48.6256 39.5255 51.0682 37.0922 51.0682 34.0905C51.0682 31.0888 48.6256 28.6555 45.6126 28.6555C42.5996 28.6555 40.1571 31.0888 40.1571 34.0905C40.1571 37.0922 42.5996 39.5255 45.6126 39.5255Z" fill="black"/>
<path d="M43.6044 51.9318H24.8342C23.9836 51.9318 23.292 51.2446 23.292 50.3954C23.292 49.5463 23.9818 48.859 24.8342 48.859H43.6044C44.4549 48.859 45.1466 49.5463 45.1466 50.3954C45.1466 51.2446 44.4567 51.9318 43.6044 51.9318Z" fill="black"/>
</svg>
