<svg width="69" height="69" viewBox="0 0 69 69" fill="none" xmlns="http://www.w3.org/2000/svg">
<path d="M34.2194 68.181C53.1182 68.181 68.4387 52.9182 68.4387 34.0905C68.4387 15.2628 53.1182 0 34.2194 0C15.3205 0 0 15.2628 0 34.0905C0 52.9182 15.3205 68.181 34.2194 68.181Z" fill="#EF4B3F"/>
<path d="M22.8261 36.602C25.8391 36.602 28.2816 34.1687 28.2816 31.167C28.2816 28.1654 25.8391 25.7321 22.8261 25.7321C19.8131 25.7321 17.3706 28.1654 17.3706 31.167C17.3706 34.1687 19.8131 36.602 22.8261 36.602Z" fill="black"/>
<path d="M45.6126 36.602C48.6256 36.602 51.0681 34.1687 51.0681 31.167C51.0681 28.1654 48.6256 25.7321 45.6126 25.7321C42.5996 25.7321 40.1571 28.1654 40.1571 31.167C40.1571 34.1687 42.5996 36.602 45.6126 36.602Z" fill="black"/>
<path d="M43.6063 51.9318C43.0952 51.9318 42.5932 51.6782 42.3006 51.2158C42.1832 51.0341 39.4997 46.9448 34.2194 46.9448C28.939 46.9448 26.1526 51.1924 26.1255 51.2356C25.6596 51.9462 24.7043 52.1459 23.9927 51.6818C23.2794 51.2176 23.079 50.2659 23.5449 49.5571C23.6966 49.325 27.348 43.8738 34.2212 43.8738C41.0943 43.8738 44.7674 49.3484 44.9137 49.5822C45.3652 50.3019 45.1449 51.2482 44.4243 51.6979C44.1697 51.8563 43.888 51.9318 43.6081 51.9318H43.6063Z" fill="black"/>
</svg>
