<svg width="69" height="69" viewBox="0 0 69 69" fill="none" xmlns="http://www.w3.org/2000/svg">
<path d="M34.2194 68.181C53.1182 68.181 68.4387 52.9182 68.4387 34.0905C68.4387 15.2628 53.1182 0 34.2194 0C15.3205 0 0 15.2628 0 34.0905C0 52.9182 15.3205 68.181 34.2194 68.181Z" fill="#EFB025"/>
<path d="M22.828 36.602C25.841 36.602 28.2835 34.1687 28.2835 31.167C28.2835 28.1654 25.841 25.7321 22.828 25.7321C19.815 25.7321 17.3724 28.1654 17.3724 31.167C17.3724 34.1687 19.815 36.602 22.828 36.602Z" fill="black"/>
<path d="M45.6125 36.602C48.6255 36.602 51.068 34.1687 51.068 31.167C51.068 28.1654 48.6255 25.7321 45.6125 25.7321C42.5995 25.7321 40.157 28.1654 40.157 31.167C40.157 34.1687 42.5995 36.602 45.6125 36.602Z" fill="black"/>
<path d="M34.2193 51.9318C27.1891 51.9318 23.673 46.4573 23.5268 46.2234C23.0753 45.5038 23.2956 44.5575 24.0161 44.1077C24.7367 43.6597 25.6848 43.8756 26.1362 44.5899C26.2536 44.7716 28.9371 48.8608 34.2175 48.8608C39.4978 48.8608 42.2843 44.6132 42.3114 44.5701C42.7773 43.8594 43.7326 43.6597 44.4441 44.1239C45.1574 44.5881 45.3579 45.5398 44.892 46.2486C44.7403 46.4807 41.0888 51.9318 34.2157 51.9318H34.2193Z" fill="black"/>
</svg>
