<svg width="69" height="69" viewBox="0 0 69 69" fill="none" xmlns="http://www.w3.org/2000/svg">
<path d="M34.2194 68.181C53.1182 68.181 68.4387 52.9182 68.4387 34.0905C68.4387 15.2628 53.1182 0 34.2194 0C15.3205 0 0 15.2628 0 34.0905C0 52.9182 15.3205 68.181 34.2194 68.181Z" fill="#6EBF43"/>
<path d="M28.0054 33.4968C27.7995 33.6515 27.5232 33.6731 27.2975 33.549C21.9016 30.5877 16.0704 32.0971 14.8063 32.3418C14.7648 32.349 14.725 32.3544 14.6835 32.3544C14.4397 32.3544 14.2122 32.2141 14.1038 31.9892C13.9431 31.6582 14.1489 31.3505 14.4361 31.1184C15.3643 30.3718 21.4086 25.329 28.0885 32.5325C28.3503 32.8168 28.3142 33.2647 28.0054 33.4968Z" fill="black"/>
<path d="M40.4333 33.4968C40.6392 33.6515 40.9154 33.6731 41.1412 33.549C46.5371 30.5877 52.3683 32.0971 53.6324 32.3418C53.6739 32.349 53.7136 32.3544 53.7552 32.3544C53.999 32.3544 54.2265 32.2141 54.3348 31.9892C54.4956 31.6582 54.2897 31.3505 54.0026 31.1184C53.0744 30.3718 47.0301 25.329 40.3502 32.5325C40.0883 32.8168 40.1245 33.2647 40.4333 33.4968Z" fill="black"/>
<path d="M22.1001 45.4084C22.1001 45.4084 24.0685 54.1608 34.2193 54.1608C44.37 54.1608 46.3384 45.4084 46.3384 45.4084H22.1001Z" fill="black"/>
</svg>
