<svg width="69" height="69" viewBox="0 0 69 69" fill="none" xmlns="http://www.w3.org/2000/svg">
<path d="M34.2194 68.181C53.1182 68.181 68.4387 52.9182 68.4387 34.0905C68.4387 15.2628 53.1182 0 34.2194 0C15.3205 0 0 15.2628 0 34.0905C0 52.9182 15.3205 68.181 34.2194 68.181Z" fill="#CC2334"/>
<path d="M15.1296 22.6862C14.7594 22.6664 14.4506 22.9597 14.4506 23.3285C14.4506 23.6217 14.6474 23.8754 14.9327 23.9492C15.8736 24.1938 18.0117 24.9117 19.7472 26.6837C18.3133 27.6624 17.3725 29.3068 17.3725 31.1688C17.3725 34.1697 19.814 36.6038 22.828 36.6038C25.842 36.6038 28.2835 34.1715 28.2835 31.1688C28.2835 23.9006 17.9106 22.8409 15.1314 22.6862H15.1296Z" fill="black"/>
<path d="M53.3109 22.6862C50.5317 22.8391 40.1588 23.8988 40.1588 31.1688C40.1588 34.1697 42.6003 36.6038 45.6143 36.6038C48.6283 36.6038 51.0699 34.1715 51.0699 31.1688C51.0699 29.3068 50.129 27.6624 48.6951 26.6837C50.4288 24.9135 52.5687 24.1938 53.5096 23.9492C53.7949 23.8754 53.9918 23.6199 53.9918 23.3285C53.9918 22.9597 53.6829 22.6664 53.3127 22.6862H53.3109Z" fill="black"/>
<path d="M43.6063 51.9318C43.0952 51.9318 42.5932 51.6782 42.3006 51.2158C42.1832 51.0341 39.4997 46.9448 34.2194 46.9448C28.939 46.9448 26.2392 51.0647 26.1218 51.241C25.6523 51.9444 24.697 52.1405 23.9891 51.6764C23.2794 51.2104 23.0808 50.2659 23.5449 49.5571C23.6966 49.325 27.348 43.8738 34.2212 43.8738C41.0943 43.8738 44.7674 49.3484 44.9137 49.5822C45.3652 50.3019 45.1449 51.2482 44.4243 51.6979C44.1697 51.8563 43.888 51.9318 43.6081 51.9318H43.6063Z" fill="black"/>
</svg>
