<?xml version="1.0" standalone="no"?>
<!DOCTYPE svg PUBLIC "-//W3C//DTD SVG 20010904//EN"
 "http://www.w3.org/TR/2001/REC-SVG-20010904/DTD/svg10.dtd">
<svg version="1.0" xmlns="http://www.w3.org/2000/svg"
 width="122.000000pt" height="122.000000pt" viewBox="0 0 122.000000 122.000000"
 preserveAspectRatio="xMidYMid meet">
<metadata>
Created by potrace 1.14, written by Peter Selinger 2001-2017
</metadata>
<g transform="translate(0.000000,122.000000) scale(0.100000,-0.100000)"
fill="#000000" stroke="none">
<path d="M175 920 l35 -36 0 -122 c0 -67 -4 -122 -8 -122 -12 0 -52 44 -52 58
0 6 -7 9 -16 5 -10 -4 -14 -13 -10 -27 4 -18 -1 -25 -32 -36 -20 -8 -43 -14
-51 -14 -23 -1 -25 -26 -2 -26 36 0 89 -31 84 -49 -2 -10 3 -23 11 -30 14 -11
16 -11 16 6 0 19 32 53 50 53 6 0 10 -51 10 -129 l0 -130 -30 -21 c-16 -12
-30 -25 -30 -30 0 -5 76 -9 169 -9 180 1 230 12 272 60 14 17 19 18 26 6 4 -8
26 -26 48 -38 38 -23 51 -24 225 -26 l185 -2 -38 33 -38 34 2 126 c0 69 4 126
8 126 18 0 51 -33 51 -52 0 -17 2 -19 16 -7 8 7 13 21 11 30 -5 19 37 42 78
44 23 0 28 30 5 30 -37 1 -79 27 -82 53 -2 14 -9 28 -17 30 -8 3 -11 0 -8 -5
4 -6 -7 -22 -22 -37 -16 -15 -31 -24 -34 -19 -3 4 -5 60 -6 123 l-1 114 35 36
34 35 -102 -1 c-251 -3 -297 -16 -348 -99 -11 -16 -19 -25 -19 -18 0 7 -14 28
-31 48 -45 51 -105 65 -283 68 l-146 2 35 -35z m95 -291 c0 -150 -2 -270 -5
-267 -2 2 -5 53 -6 114 -1 60 -6 114 -11 121 -5 7 -6 18 -2 24 10 16 12 44 13
172 1 59 3 107 6 107 3 0 5 -122 5 -271z m684 126 c3 -71 6 -137 6 -145 0 -37
-11 -236 -15 -245 -2 -5 -3 114 -3 265 0 151 1 271 3 265 3 -5 7 -68 9 -140z
m-502 106 c39 -15 63 -49 63 -92 0 -21 1 -39 2 -39 2 0 10 15 18 33 l15 32 -6
-30 c-8 -42 -29 -73 -67 -95 -40 -25 -83 -26 -96 -2 -9 15 -11 14 -19 -8 -5
-14 -7 -29 -4 -34 3 -5 5 -25 6 -44 1 -20 7 -37 15 -40 8 -3 11 0 7 6 -4 6 1
15 11 21 25 13 92 -11 120 -44 22 -25 49 -102 40 -112 -3 -2 -8 9 -12 26 -8
39 -21 48 -19 13 2 -28 -19 -69 -45 -89 -22 -17 -103 -29 -151 -24 -6 1 -10
98 -10 271 l0 271 54 -6 c30 -3 65 -9 78 -14z m438 -251 c0 -250 -1 -270 -17
-271 -107 -7 -183 35 -185 100 -1 30 -18 46 -18 16 0 -8 -5 -15 -10 -15 -14 0
16 70 39 93 26 27 92 47 114 36 10 -6 15 -15 11 -21 -4 -6 -1 -9 7 -6 8 3 15
20 16 39 1 19 3 41 4 49 4 28 -1 50 -11 50 -5 0 -9 -6 -7 -12 1 -8 -11 -14
-31 -16 -65 -6 -153 81 -139 136 4 13 5 12 6 -4 0 -11 7 -28 14 -38 11 -15 12
-12 12 23 0 65 54 103 153 108 l42 3 0 -270z m-219 27 c32 -25 32 -25 10 -36
-12 -7 -35 -30 -51 -52 -25 -36 -29 -38 -35 -20 -3 11 -24 36 -45 54 l-40 34
31 22 c16 12 37 38 47 57 l16 35 18 -35 c10 -19 32 -45 49 -59z m-492 -16 c13
-9 9 -13 -21 -24 -13 -5 -15 -2 -11 11 6 15 4 15 -10 4 -9 -8 -21 -11 -28 -7
-14 10 8 25 36 25 11 0 26 -4 34 -9z m921 -1 c12 -7 11 -10 -5 -16 -11 -4 -22
-8 -25 -9 -3 -2 -16 2 -30 7 -20 7 -22 11 -10 18 19 12 51 12 70 0z m-430
-194 c0 -3 -4 -8 -10 -11 -5 -3 -10 -1 -10 4 0 6 5 11 10 11 6 0 10 -2 10 -4z
m-403 -108 c-3 -7 -5 -2 -5 12 0 14 2 19 5 13 2 -7 2 -19 0 -25z m680 0 c-3
-7 -5 -2 -5 12 0 14 2 19 5 13 2 -7 2 -19 0 -25z"/>
<path d="M601 683 c-1 -6 -12 -25 -26 -42 -25 -29 -25 -30 -6 -40 11 -6 23
-21 27 -33 6 -20 7 -21 17 -2 6 10 19 25 30 33 18 13 18 14 -6 40 -13 14 -27
33 -30 41 -3 8 -6 10 -6 3z m17 -64 c-2 -6 -8 -10 -13 -10 -5 0 -11 4 -13 10
-2 6 4 11 13 11 9 0 15 -5 13 -11z"/>
</g>
</svg>
